%TF.GenerationSoftware,KiCad,Pcbnew,9.0.7-9-ga3ce409f20*%
%TF.CreationDate,2026-04-06T13:44:26+08:00*%
%TF.ProjectId,OPAMP,4f50414d-502e-46b6-9963-61645f706362,rev?*%
%TF.SameCoordinates,Original*%
%TF.FileFunction,Copper,L2,Bot*%
%TF.FilePolarity,Positive*%
%FSLAX46Y46*%
G04 Gerber Fmt 4.6, Leading zero omitted, Abs format (unit mm)*
G04 Created by KiCad (PCBNEW 9.0.7-9-ga3ce409f20) date 2026-04-06 13:44:26*
%MOMM*%
%LPD*%
G01*
G04 APERTURE LIST*
G04 Aperture macros list*
%AMRoundRect*
0 Rectangle with rounded corners*
0 $1 Rounding radius*
0 $2 $3 $4 $5 $6 $7 $8 $9 X,Y pos of 4 corners*
0 Add a 4 corners polygon primitive as box body*
4,1,4,$2,$3,$4,$5,$6,$7,$8,$9,$2,$3,0*
0 Add four circle primitives for the rounded corners*
1,1,$1+$1,$2,$3*
1,1,$1+$1,$4,$5*
1,1,$1+$1,$6,$7*
1,1,$1+$1,$8,$9*
0 Add four rect primitives between the rounded corners*
20,1,$1+$1,$2,$3,$4,$5,0*
20,1,$1+$1,$4,$5,$6,$7,0*
20,1,$1+$1,$6,$7,$8,$9,0*
20,1,$1+$1,$8,$9,$2,$3,0*%
G04 Aperture macros list end*
%TA.AperFunction,SMDPad,CuDef*%
%ADD10RoundRect,0.100000X-0.130000X-0.100000X0.130000X-0.100000X0.130000X0.100000X-0.130000X0.100000X0*%
%TD*%
%TA.AperFunction,ViaPad*%
%ADD11C,0.600000*%
%TD*%
%TA.AperFunction,Conductor*%
%ADD12C,0.200000*%
%TD*%
%TA.AperFunction,Conductor*%
%ADD13C,0.400000*%
%TD*%
G04 APERTURE END LIST*
D10*
%TO.P,R12,1*%
%TO.N,/COIL_FILT_N*%
X63815000Y-136311000D03*
%TO.P,R12,2*%
%TO.N,/BIAS_1V5*%
X64455000Y-136311000D03*
%TD*%
%TO.P,R11,1*%
%TO.N,/COIL_FILT_P*%
X63815000Y-137200000D03*
%TO.P,R11,2*%
%TO.N,/BIAS_1V5*%
X64455000Y-137200000D03*
%TD*%
D11*
%TO.N,/COIL_FILT_N*%
X61706607Y-135233000D03*
X63815000Y-135625000D03*
X59145735Y-137204265D03*
%TO.N,/COIL_FILT_P*%
X60500000Y-138400000D03*
X60100000Y-137700000D03*
X63600000Y-138300000D03*
%TO.N,/AGND*%
X75000000Y-127800000D03*
X57300000Y-128200000D03*
X49400000Y-136700000D03*
X56100000Y-136800000D03*
X52900000Y-133500000D03*
X52900000Y-137900000D03*
X72700000Y-131400000D03*
X68000000Y-132300000D03*
X64800000Y-126000000D03*
X69100000Y-125900000D03*
X47900000Y-124300000D03*
X70100000Y-133700000D03*
X57800000Y-122600000D03*
X53700000Y-125400000D03*
X46700000Y-133200000D03*
X63300000Y-133400000D03*
X67200000Y-140900000D03*
X60600000Y-134100000D03*
X78200000Y-135200000D03*
X64900000Y-132200000D03*
X55900000Y-126500000D03*
X59000000Y-131600000D03*
%TO.N,+5VA*%
X65700000Y-134000000D03*
X63700000Y-134100000D03*
%TO.N,Net-(C12-Pad1)*%
X70300000Y-131000000D03*
X70600000Y-128500000D03*
%TO.N,/VOUT_RAW*%
X69399135Y-131585000D03*
X70900000Y-131600000D03*
%TO.N,/VOUT*%
X70774735Y-134174735D03*
X72500000Y-137200000D03*
%TO.N,/VREF_3V0*%
X70600000Y-121400000D03*
X70800000Y-122649000D03*
%TO.N,/BIAS_1V5*%
X65700000Y-136800000D03*
X71446179Y-131086004D03*
X74500000Y-132000000D03*
%TO.N,Net-(U1-A0)*%
X59518870Y-130956000D03*
X54600000Y-125416002D03*
%TO.N,Net-(U1-A1)*%
X56393744Y-130672927D03*
X53300000Y-129100000D03*
%TO.N,Net-(U1-S2)*%
X55924104Y-131792000D03*
X60412154Y-132013888D03*
%TO.N,Net-(U1-EN)*%
X59500000Y-132750000D03*
X68200000Y-133400000D03*
%TD*%
D12*
%TO.N,/COIL_FILT_N*%
X63815000Y-135625000D02*
X63815000Y-136311000D01*
X59943799Y-136995807D02*
X61706607Y-135233000D01*
X59145735Y-137204265D02*
X59440538Y-137204265D01*
X59943799Y-136995807D02*
G75*
G02*
X59440538Y-137204278I-503299J503307D01*
G01*
%TO.N,/COIL_FILT_P*%
X63815000Y-137932972D02*
X63815000Y-137200000D01*
X60100000Y-137700000D02*
X60100000Y-137850000D01*
X60500000Y-138400000D02*
X60206066Y-138106066D01*
X63600000Y-138300000D02*
X63707500Y-138192500D01*
X60100000Y-137850000D02*
G75*
G03*
X60206073Y-138106059I362100J0D01*
G01*
X63815000Y-137932972D02*
G75*
G02*
X63707508Y-138192508I-367000J-28D01*
G01*
D13*
%TO.N,+5VA*%
X65650000Y-134050000D02*
X65700000Y-134000000D01*
X65529289Y-134100000D02*
X63700000Y-134100000D01*
X65650000Y-134050000D02*
G75*
G02*
X65529289Y-134099996I-120700J120700D01*
G01*
D12*
%TO.N,Net-(C12-Pad1)*%
X70300000Y-131000000D02*
X70300000Y-129012132D01*
X70450000Y-128650000D02*
X70600000Y-128500000D01*
X70450000Y-128650000D02*
G75*
G03*
X70300013Y-129012132I362100J-362100D01*
G01*
%TO.N,/VOUT_RAW*%
X69399135Y-131585000D02*
X69406635Y-131592500D01*
X70900000Y-131600000D02*
X69424741Y-131600000D01*
X69424741Y-131600000D02*
G75*
G02*
X69406616Y-131592519I-41J25600D01*
G01*
%TO.N,/VOUT*%
X72500000Y-136550000D02*
X72500000Y-137200000D01*
X70774735Y-134174735D02*
X72040380Y-135440380D01*
X72500000Y-136550000D02*
G75*
G03*
X72040372Y-135440388I-1569200J0D01*
G01*
%TO.N,/VREF_3V0*%
X70800000Y-122649000D02*
X70800000Y-121741421D01*
X70600000Y-121400000D02*
X70700000Y-121500000D01*
X70800000Y-121741421D02*
G75*
G03*
X70700006Y-121499994I-341400J21D01*
G01*
%TO.N,/BIAS_1V5*%
X71446179Y-131086004D02*
X71903177Y-131543002D01*
X65017157Y-137200000D02*
X64455000Y-137200000D01*
X65700000Y-136800000D02*
X65455500Y-136555500D01*
X64865224Y-136311000D02*
X64455000Y-136311000D01*
X73006467Y-132000000D02*
X74500000Y-132000000D01*
X65700000Y-136800000D02*
X65500000Y-137000000D01*
X65455500Y-136555500D02*
G75*
G03*
X64865224Y-136310990I-590300J-590300D01*
G01*
X65017157Y-137200000D02*
G75*
G03*
X65500033Y-137000033I43J682900D01*
G01*
X73006467Y-132000000D02*
G75*
G02*
X71903191Y-131542988I33J1560300D01*
G01*
%TO.N,Net-(U1-A0)*%
X60369170Y-130105699D02*
X59518870Y-130956000D01*
X55458001Y-125416002D02*
X54600000Y-125416002D01*
X60369170Y-129469170D02*
X56922700Y-126022700D01*
X55458001Y-125416002D02*
G75*
G02*
X56922700Y-126022700I-1J-2071398D01*
G01*
X60369170Y-130105699D02*
G75*
G03*
X60501022Y-129787435I-318270J318299D01*
G01*
X60501000Y-129787435D02*
G75*
G03*
X60369189Y-129469151I-450100J35D01*
G01*
%TO.N,Net-(U1-A1)*%
X56006106Y-130900000D02*
X55633335Y-130900000D01*
X54722874Y-130522874D02*
X53300000Y-129100000D01*
X56280207Y-130786463D02*
X56393744Y-130672927D01*
X56006106Y-130900000D02*
G75*
G03*
X56280197Y-130786453I-6J387600D01*
G01*
X55633335Y-130900000D02*
G75*
G02*
X54722853Y-130522895I-35J1287600D01*
G01*
%TO.N,Net-(U1-S2)*%
X60412154Y-132013888D02*
X60343598Y-132082444D01*
X55924104Y-131792000D02*
X55978104Y-131846000D01*
X60178089Y-132151000D02*
X56928483Y-132151000D01*
X56322516Y-131900000D02*
X56108471Y-131900000D01*
X56625500Y-132025500D02*
G75*
G03*
X56322516Y-131899993I-303000J-303000D01*
G01*
X56625500Y-132025500D02*
G75*
G03*
X56928483Y-132151007I303000J303000D01*
G01*
X56108471Y-131900000D02*
G75*
G02*
X55978112Y-131845992I29J184400D01*
G01*
X60178089Y-132151000D02*
G75*
G03*
X60343611Y-132082457I11J234100D01*
G01*
%TO.N,Net-(U1-EN)*%
X63310384Y-134489616D02*
X63158981Y-134338213D01*
X64098942Y-134551000D02*
X65750748Y-134551000D01*
X59500000Y-132750000D02*
X60317192Y-133567192D01*
X60600000Y-133549000D02*
X60397495Y-133549000D01*
X61365116Y-134300000D02*
X63134884Y-134300000D01*
X68200000Y-133400000D02*
X67696251Y-133903748D01*
X60999597Y-133720365D02*
X60989616Y-133710384D01*
X66739616Y-134300000D02*
X66356715Y-134300000D01*
X63857521Y-134651000D02*
X63699999Y-134651000D01*
X66739616Y-134300000D02*
G75*
G03*
X67696246Y-133903743I-16J1352900D01*
G01*
X66356715Y-134300000D02*
G75*
G03*
X66053721Y-134425489I-15J-428500D01*
G01*
X60600000Y-133549000D02*
G75*
G02*
X60989616Y-133710384I0J-551000D01*
G01*
X61365116Y-134300000D02*
G75*
G02*
X61151000Y-134085884I-16J214100D01*
G01*
X60353576Y-133567192D02*
G75*
G02*
X60397495Y-133548993I43924J-43908D01*
G01*
X63158981Y-134338213D02*
G75*
G02*
X63148995Y-134314116I24119J24113D01*
G01*
X60999597Y-133720365D02*
G75*
G02*
X61151018Y-134085884I-365497J-365535D01*
G01*
X65750748Y-134551000D02*
G75*
G03*
X66053711Y-134425479I-48J428500D01*
G01*
X63310384Y-134489616D02*
G75*
G03*
X63699999Y-134651000I389616J389616D01*
G01*
X63134884Y-134300000D02*
G75*
G02*
X63149000Y-134314116I16J-14100D01*
G01*
X64098942Y-134551000D02*
G75*
G03*
X63978213Y-134600981I-42J-170700D01*
G01*
X63857521Y-134651000D02*
G75*
G03*
X63978219Y-134600987I-21J170700D01*
G01*
X60353576Y-133567192D02*
G75*
G02*
X60317192Y-133567192I-18192J18193D01*
G01*
%TD*%
%TA.AperFunction,Conductor*%
%TO.N,/AGND*%
G36*
X77001601Y-119200604D02*
G01*
X77231683Y-119215685D01*
X77238017Y-119216518D01*
X77462609Y-119261192D01*
X77468769Y-119262842D01*
X77685605Y-119336449D01*
X77691517Y-119338898D01*
X77896878Y-119440171D01*
X77902413Y-119443366D01*
X78081014Y-119562704D01*
X78092796Y-119570577D01*
X78097881Y-119574479D01*
X78270024Y-119725443D01*
X78274556Y-119729975D01*
X78425520Y-119902118D01*
X78429422Y-119907203D01*
X78556628Y-120097578D01*
X78559833Y-120103129D01*
X78661099Y-120308478D01*
X78663552Y-120314399D01*
X78737154Y-120531221D01*
X78738809Y-120537400D01*
X78783478Y-120761964D01*
X78784314Y-120768318D01*
X78799395Y-120998398D01*
X78799500Y-121001603D01*
X78799500Y-139998396D01*
X78799395Y-140001601D01*
X78784314Y-140231681D01*
X78783478Y-140238032D01*
X78738810Y-140462595D01*
X78737154Y-140468778D01*
X78663552Y-140685600D01*
X78661099Y-140691521D01*
X78559833Y-140896870D01*
X78556628Y-140902421D01*
X78429422Y-141092796D01*
X78425520Y-141097881D01*
X78274556Y-141270024D01*
X78270024Y-141274556D01*
X78097881Y-141425520D01*
X78092796Y-141429422D01*
X77902421Y-141556628D01*
X77896870Y-141559833D01*
X77691521Y-141661099D01*
X77685600Y-141663552D01*
X77468778Y-141737154D01*
X77462595Y-141738810D01*
X77238032Y-141783478D01*
X77231681Y-141784314D01*
X77001602Y-141799395D01*
X76998397Y-141799500D01*
X48001603Y-141799500D01*
X47998398Y-141799395D01*
X47768318Y-141784314D01*
X47761969Y-141783478D01*
X47537400Y-141738809D01*
X47531221Y-141737154D01*
X47314399Y-141663552D01*
X47308478Y-141661099D01*
X47103129Y-141559833D01*
X47097582Y-141556630D01*
X47001822Y-141492645D01*
X46907203Y-141429422D01*
X46902118Y-141425520D01*
X46729975Y-141274556D01*
X46725443Y-141270024D01*
X46574479Y-141097881D01*
X46570577Y-141092796D01*
X46444937Y-140904764D01*
X46443366Y-140902413D01*
X46440171Y-140896878D01*
X46338898Y-140691517D01*
X46336447Y-140685600D01*
X46326349Y-140655852D01*
X46262842Y-140468769D01*
X46261192Y-140462609D01*
X46216518Y-140238017D01*
X46215685Y-140231681D01*
X46200605Y-140001601D01*
X46200500Y-139998396D01*
X46200500Y-137144953D01*
X58695235Y-137144953D01*
X58695235Y-137263576D01*
X58725935Y-137378149D01*
X58725936Y-137378152D01*
X58773930Y-137461278D01*
X58785246Y-137480878D01*
X58869122Y-137564754D01*
X58971849Y-137624064D01*
X59000493Y-137631739D01*
X59086423Y-137654765D01*
X59086426Y-137654765D01*
X59205046Y-137654765D01*
X59262332Y-137639414D01*
X59319621Y-137624064D01*
X59422348Y-137564754D01*
X59506224Y-137480878D01*
X59510113Y-137474140D01*
X59512271Y-137472484D01*
X59512907Y-137469837D01*
X59526871Y-137461278D01*
X59539862Y-137451308D01*
X59544845Y-137450248D01*
X59640571Y-137435082D01*
X59677036Y-137443836D01*
X59696633Y-137475812D01*
X59690671Y-137507979D01*
X59680201Y-137526111D01*
X59680200Y-137526115D01*
X59649500Y-137640688D01*
X59649500Y-137759311D01*
X59680200Y-137873884D01*
X59680201Y-137873887D01*
X59739511Y-137976613D01*
X59755480Y-137992582D01*
X59756525Y-137993659D01*
X59917534Y-138164841D01*
X59927354Y-138180258D01*
X59990649Y-138338938D01*
X60057737Y-138507130D01*
X60062855Y-138515881D01*
X60067888Y-138527936D01*
X60080199Y-138573882D01*
X60080201Y-138573888D01*
X60130201Y-138660488D01*
X60139511Y-138676613D01*
X60223387Y-138760489D01*
X60326114Y-138819799D01*
X60354758Y-138827474D01*
X60440688Y-138850500D01*
X60440691Y-138850500D01*
X60559311Y-138850500D01*
X60616597Y-138835149D01*
X60673886Y-138819799D01*
X60776613Y-138760489D01*
X60860489Y-138676613D01*
X60919799Y-138573886D01*
X60946595Y-138473884D01*
X60950500Y-138459311D01*
X60950500Y-138340688D01*
X60950499Y-138340687D01*
X60926243Y-138250161D01*
X60923704Y-138240688D01*
X63149500Y-138240688D01*
X63149500Y-138359311D01*
X63180200Y-138473884D01*
X63180201Y-138473887D01*
X63204445Y-138515878D01*
X63239511Y-138576613D01*
X63323387Y-138660489D01*
X63426114Y-138719799D01*
X63454758Y-138727474D01*
X63540688Y-138750500D01*
X63540691Y-138750500D01*
X63659311Y-138750500D01*
X63716597Y-138735149D01*
X63773886Y-138719799D01*
X63876613Y-138660489D01*
X63960489Y-138576613D01*
X64019799Y-138473886D01*
X64035149Y-138416597D01*
X64050500Y-138359311D01*
X64050500Y-138340682D01*
X64050531Y-138338938D01*
X64053693Y-138250161D01*
X64062111Y-138013847D01*
X64062268Y-138010049D01*
X64065504Y-137993777D01*
X64065500Y-137932953D01*
X64065500Y-137928924D01*
X64065500Y-137919567D01*
X64065531Y-137917823D01*
X64069969Y-137793225D01*
X64070046Y-137790304D01*
X64070053Y-137789896D01*
X64066363Y-137770494D01*
X64065500Y-137761339D01*
X64065500Y-137654176D01*
X64069600Y-137634554D01*
X64115137Y-137530356D01*
X64142162Y-137504356D01*
X64179658Y-137505080D01*
X64187253Y-137509235D01*
X64227260Y-137535966D01*
X64300326Y-137550500D01*
X64609674Y-137550500D01*
X64674456Y-137537612D01*
X64677008Y-137537176D01*
X64682481Y-137536389D01*
X64917888Y-137453294D01*
X64934198Y-137450500D01*
X65071646Y-137450500D01*
X65072078Y-137450456D01*
X65090594Y-137450458D01*
X65235692Y-137427487D01*
X65299610Y-137406723D01*
X65308624Y-137404713D01*
X65323906Y-137402793D01*
X65797876Y-137245026D01*
X65811717Y-137237720D01*
X65821893Y-137233730D01*
X65873886Y-137219799D01*
X65976613Y-137160489D01*
X66060489Y-137076613D01*
X66119799Y-136973886D01*
X66137590Y-136907489D01*
X66150500Y-136859311D01*
X66150500Y-136740688D01*
X66120629Y-136629211D01*
X66119799Y-136626114D01*
X66060489Y-136523387D01*
X65976613Y-136439511D01*
X65873888Y-136380201D01*
X65873882Y-136380199D01*
X65828040Y-136367916D01*
X65813511Y-136361336D01*
X65809150Y-136358424D01*
X65809149Y-136358423D01*
X65809145Y-136358421D01*
X65809141Y-136358419D01*
X65368348Y-136175980D01*
X65368331Y-136175975D01*
X65348858Y-136172106D01*
X65336163Y-136167705D01*
X65281826Y-136140019D01*
X65229036Y-136122865D01*
X65119363Y-136087229D01*
X64950643Y-136060502D01*
X64950637Y-136060501D01*
X64920744Y-136060501D01*
X64917911Y-136060500D01*
X64917897Y-136060494D01*
X64908923Y-136058852D01*
X64908877Y-136059038D01*
X64908873Y-136059037D01*
X64908919Y-136058851D01*
X64900579Y-136057326D01*
X64685891Y-135976049D01*
X64684811Y-135975705D01*
X64683247Y-135975133D01*
X64681049Y-135974696D01*
X64678234Y-135974049D01*
X64653930Y-135967702D01*
X64653915Y-135967699D01*
X64649031Y-135966966D01*
X64636115Y-135965565D01*
X64631848Y-135964910D01*
X64609674Y-135960500D01*
X64300326Y-135960500D01*
X64278156Y-135964910D01*
X64249669Y-135970576D01*
X64236658Y-135967987D01*
X64223408Y-135968583D01*
X64218890Y-135964453D01*
X64212887Y-135963259D01*
X64205516Y-135952228D01*
X64195727Y-135943280D01*
X64195452Y-135937166D01*
X64192051Y-135932076D01*
X64194044Y-135905815D01*
X64227997Y-135812169D01*
X64231625Y-135804382D01*
X64234799Y-135798886D01*
X64239872Y-135779950D01*
X64241129Y-135775951D01*
X64250796Y-135749294D01*
X64254303Y-135738381D01*
X64254772Y-135736713D01*
X64255141Y-135727581D01*
X64256767Y-135716894D01*
X64265500Y-135684309D01*
X64265500Y-135565691D01*
X64265500Y-135565688D01*
X64234799Y-135451115D01*
X64234798Y-135451112D01*
X64209264Y-135406886D01*
X64175489Y-135348387D01*
X64091613Y-135264511D01*
X63988887Y-135205201D01*
X63988884Y-135205200D01*
X63874312Y-135174500D01*
X63874309Y-135174500D01*
X63755691Y-135174500D01*
X63755688Y-135174500D01*
X63641115Y-135205200D01*
X63641112Y-135205201D01*
X63538386Y-135264511D01*
X63538386Y-135264512D01*
X63454512Y-135348386D01*
X63454511Y-135348386D01*
X63395201Y-135451112D01*
X63395200Y-135451115D01*
X63364500Y-135565688D01*
X63364500Y-135684311D01*
X63374912Y-135723169D01*
X63375614Y-135725788D01*
X63379203Y-135749292D01*
X63389581Y-135777917D01*
X63390126Y-135779950D01*
X63390128Y-135779956D01*
X63395199Y-135798882D01*
X63395201Y-135798886D01*
X63398374Y-135804382D01*
X63402004Y-135812179D01*
X63479892Y-136026997D01*
X63479098Y-136062447D01*
X63478903Y-136062916D01*
X63475971Y-136069627D01*
X63475572Y-136070959D01*
X63474611Y-136073282D01*
X63473605Y-136074287D01*
X63470082Y-136081755D01*
X63449033Y-136113259D01*
X63434500Y-136186322D01*
X63434500Y-136435677D01*
X63449033Y-136508739D01*
X63504398Y-136591601D01*
X63558424Y-136627699D01*
X63587260Y-136646966D01*
X63660326Y-136661500D01*
X63969674Y-136661500D01*
X64042740Y-136646966D01*
X64107777Y-136603509D01*
X64144560Y-136596194D01*
X64162221Y-136603509D01*
X64227260Y-136646966D01*
X64300326Y-136661500D01*
X64609674Y-136661500D01*
X64682740Y-136646966D01*
X64682741Y-136646965D01*
X64683064Y-136646901D01*
X64685187Y-136646171D01*
X64686782Y-136645556D01*
X64686789Y-136645555D01*
X64885982Y-136568794D01*
X64908402Y-136565754D01*
X64974410Y-136572257D01*
X64983811Y-136574127D01*
X65081982Y-136603908D01*
X65110969Y-136627699D01*
X65111744Y-136629211D01*
X65177302Y-136762805D01*
X65179682Y-136800232D01*
X65176192Y-136808107D01*
X65115129Y-136918511D01*
X65111479Y-136921419D01*
X65110125Y-136925883D01*
X65097233Y-136932772D01*
X65085800Y-136941884D01*
X65077049Y-136943559D01*
X65019090Y-136949263D01*
X65014290Y-136949499D01*
X64977318Y-136949498D01*
X64973003Y-136949498D01*
X64973002Y-136949498D01*
X64968339Y-136949498D01*
X64968319Y-136949500D01*
X64934202Y-136949500D01*
X64917892Y-136946706D01*
X64863909Y-136927651D01*
X64682480Y-136863609D01*
X64664797Y-136859311D01*
X64652036Y-136856209D01*
X64647393Y-136855567D01*
X64634768Y-136854270D01*
X64630221Y-136853586D01*
X64609674Y-136849500D01*
X64300326Y-136849500D01*
X64300322Y-136849500D01*
X64227260Y-136864033D01*
X64162222Y-136907489D01*
X64125440Y-136914805D01*
X64107778Y-136907489D01*
X64042739Y-136864033D01*
X63969677Y-136849500D01*
X63969674Y-136849500D01*
X63660326Y-136849500D01*
X63660322Y-136849500D01*
X63587260Y-136864033D01*
X63504398Y-136919398D01*
X63449033Y-137002260D01*
X63434500Y-137075322D01*
X63434500Y-137324677D01*
X63449033Y-137397740D01*
X63449034Y-137397743D01*
X63470109Y-137429284D01*
X63474920Y-137439207D01*
X63475008Y-137439169D01*
X63560399Y-137634553D01*
X63564500Y-137654176D01*
X63564500Y-137684547D01*
X63550148Y-137719195D01*
X63549729Y-137719609D01*
X63330453Y-137933675D01*
X63325723Y-137937278D01*
X63325936Y-137937555D01*
X63323384Y-137939513D01*
X63239512Y-138023386D01*
X63239511Y-138023386D01*
X63180201Y-138126112D01*
X63180200Y-138126115D01*
X63149500Y-138240688D01*
X60923704Y-138240688D01*
X60923375Y-138239460D01*
X60919799Y-138226114D01*
X60860489Y-138123387D01*
X60776613Y-138039511D01*
X60748686Y-138023387D01*
X60731460Y-138013441D01*
X60729951Y-138012570D01*
X60713944Y-138001745D01*
X60703831Y-137997489D01*
X60701171Y-137995953D01*
X60701169Y-137995951D01*
X60673889Y-137980202D01*
X60673886Y-137980201D01*
X60669171Y-137978937D01*
X60646429Y-137972843D01*
X60640110Y-137970678D01*
X60579150Y-137945029D01*
X60552779Y-137918363D01*
X60549153Y-137899661D01*
X60549260Y-137873884D01*
X60549695Y-137768793D01*
X60549694Y-137768789D01*
X60549696Y-137768421D01*
X60550116Y-137762224D01*
X60550500Y-137759309D01*
X60550500Y-137640688D01*
X60526333Y-137550499D01*
X60519799Y-137526114D01*
X60460489Y-137423387D01*
X60376613Y-137339511D01*
X60350915Y-137324674D01*
X60273887Y-137280201D01*
X60273884Y-137280200D01*
X60159313Y-137249500D01*
X60156250Y-137249097D01*
X60142577Y-137241203D01*
X60127999Y-137235165D01*
X60126703Y-137232038D01*
X60123771Y-137230345D01*
X60119685Y-137215096D01*
X60113646Y-137200518D01*
X60114941Y-137197390D01*
X60114065Y-137194120D01*
X60127996Y-137165870D01*
X60152161Y-137141706D01*
X60152161Y-137141704D01*
X61428394Y-135865471D01*
X61442271Y-135855740D01*
X61866277Y-135657388D01*
X61874357Y-135654443D01*
X61877921Y-135653487D01*
X61880493Y-135652799D01*
X61880500Y-135652795D01*
X61897476Y-135642993D01*
X61901201Y-135641050D01*
X61926871Y-135629043D01*
X61937190Y-135623737D01*
X61938700Y-135622888D01*
X61945387Y-135616715D01*
X61954120Y-135610289D01*
X61983213Y-135593493D01*
X61983212Y-135593493D01*
X61983220Y-135593489D01*
X62067096Y-135509613D01*
X62126406Y-135406886D01*
X62142296Y-135347583D01*
X62157107Y-135292311D01*
X62157107Y-135173688D01*
X62134081Y-135087758D01*
X62126406Y-135059114D01*
X62067096Y-134956387D01*
X61983220Y-134872511D01*
X61950381Y-134853551D01*
X61880494Y-134813201D01*
X61880491Y-134813200D01*
X61765919Y-134782500D01*
X61765916Y-134782500D01*
X61647298Y-134782500D01*
X61647295Y-134782500D01*
X61532722Y-134813200D01*
X61532719Y-134813201D01*
X61429993Y-134872511D01*
X61346120Y-134956384D01*
X61346118Y-134956386D01*
X61346118Y-134956387D01*
X61325990Y-134991248D01*
X61325989Y-134991247D01*
X61324630Y-134993600D01*
X61310563Y-135012735D01*
X61297661Y-135040312D01*
X61296604Y-135042144D01*
X61286807Y-135059113D01*
X61285163Y-135065247D01*
X61282219Y-135073320D01*
X61083866Y-135497329D01*
X61074130Y-135511214D01*
X60417640Y-136167705D01*
X59781580Y-136803765D01*
X59768375Y-136816970D01*
X59764813Y-136820198D01*
X59700504Y-136872975D01*
X59692518Y-136878311D01*
X59621289Y-136916384D01*
X59612416Y-136920059D01*
X59553223Y-136938018D01*
X59515901Y-136934344D01*
X59504349Y-136925777D01*
X59422348Y-136843776D01*
X59319622Y-136784466D01*
X59319619Y-136784465D01*
X59205047Y-136753765D01*
X59205044Y-136753765D01*
X59086426Y-136753765D01*
X59086423Y-136753765D01*
X58971850Y-136784465D01*
X58971847Y-136784466D01*
X58869121Y-136843776D01*
X58869121Y-136843777D01*
X58785247Y-136927651D01*
X58785246Y-136927651D01*
X58725936Y-137030377D01*
X58725935Y-137030380D01*
X58695235Y-137144953D01*
X46200500Y-137144953D01*
X46200500Y-131732688D01*
X55473604Y-131732688D01*
X55473604Y-131851311D01*
X55504304Y-131965884D01*
X55504305Y-131965887D01*
X55548117Y-132041770D01*
X55563615Y-132068613D01*
X55647491Y-132152489D01*
X55750218Y-132211799D01*
X55778862Y-132219474D01*
X55864792Y-132242500D01*
X55864795Y-132242500D01*
X55983411Y-132242500D01*
X55983413Y-132242500D01*
X55994382Y-132239560D01*
X56009291Y-132237942D01*
X56010757Y-132238008D01*
X56017019Y-132238294D01*
X56017020Y-132238293D01*
X56017025Y-132238294D01*
X56395194Y-132180804D01*
X56395703Y-132180930D01*
X56396161Y-132180666D01*
X56413860Y-132185408D01*
X56431603Y-132189785D01*
X56432346Y-132190343D01*
X56445866Y-132200717D01*
X56450679Y-132204939D01*
X56482819Y-132237079D01*
X56482871Y-132237122D01*
X56495660Y-132249911D01*
X56606864Y-132324217D01*
X56730427Y-132375401D01*
X56730430Y-132375401D01*
X56730431Y-132375402D01*
X56763653Y-132382011D01*
X56861601Y-132401497D01*
X56872940Y-132401497D01*
X56878649Y-132401497D01*
X56878655Y-132401500D01*
X56928473Y-132401500D01*
X56972643Y-132401501D01*
X56972646Y-132401500D01*
X59096145Y-132401500D01*
X59130793Y-132415852D01*
X59145145Y-132450500D01*
X59138580Y-132475000D01*
X59080201Y-132576112D01*
X59080200Y-132576115D01*
X59049500Y-132690688D01*
X59049500Y-132809311D01*
X59080200Y-132923884D01*
X59080201Y-132923887D01*
X59094989Y-132949500D01*
X59139511Y-133026613D01*
X59223387Y-133110489D01*
X59260594Y-133131970D01*
X59279735Y-133146043D01*
X59307313Y-133158944D01*
X59326114Y-133169799D01*
X59332251Y-133171443D01*
X59340321Y-133174385D01*
X59764330Y-133372739D01*
X59778213Y-133382474D01*
X60108832Y-133713093D01*
X60108833Y-133713095D01*
X60118101Y-133722362D01*
X60175295Y-133779556D01*
X60195630Y-133787979D01*
X60199115Y-133789584D01*
X60248964Y-133814983D01*
X60335384Y-133828670D01*
X60421804Y-133814983D01*
X60435429Y-133808041D01*
X60441712Y-133804840D01*
X60463956Y-133799500D01*
X60555830Y-133799500D01*
X60596787Y-133799500D01*
X60603182Y-133799919D01*
X60635244Y-133804139D01*
X60671380Y-133808897D01*
X60683735Y-133812207D01*
X60744291Y-133837291D01*
X60755368Y-133843686D01*
X60809932Y-133885554D01*
X60814751Y-133889780D01*
X60820200Y-133895229D01*
X60824425Y-133900046D01*
X60860892Y-133947566D01*
X60867288Y-133958644D01*
X60888965Y-134010972D01*
X60892277Y-134023327D01*
X60900080Y-134082578D01*
X60900499Y-134088978D01*
X60900496Y-134147036D01*
X60932154Y-134265212D01*
X60993321Y-134371162D01*
X60993323Y-134371164D01*
X60993324Y-134371166D01*
X61079834Y-134457676D01*
X61185787Y-134518845D01*
X61303963Y-134550504D01*
X61365135Y-134550500D01*
X62996711Y-134550500D01*
X63031359Y-134564852D01*
X63177852Y-134711345D01*
X63177856Y-134711348D01*
X63177858Y-134711350D01*
X63279922Y-134785504D01*
X63392330Y-134842779D01*
X63512314Y-134881764D01*
X63636919Y-134901500D01*
X63650171Y-134901500D01*
X63809148Y-134901500D01*
X63813368Y-134901500D01*
X63813382Y-134901505D01*
X63837245Y-134901502D01*
X63837288Y-134901519D01*
X63857552Y-134901516D01*
X63857552Y-134901518D01*
X63899039Y-134901513D01*
X63899104Y-134901500D01*
X63907349Y-134901500D01*
X63914976Y-134898340D01*
X63980416Y-134885315D01*
X64057070Y-134853553D01*
X64117866Y-134812918D01*
X64121382Y-134810777D01*
X64122851Y-134809964D01*
X64124102Y-134809382D01*
X64124344Y-134809139D01*
X64127105Y-134807614D01*
X64133811Y-134806858D01*
X64150807Y-134801500D01*
X65702369Y-134801500D01*
X65702427Y-134801504D01*
X65706602Y-134801503D01*
X65706606Y-134801505D01*
X65730449Y-134801502D01*
X65730519Y-134801530D01*
X65750776Y-134801528D01*
X65750776Y-134801529D01*
X65817650Y-134801522D01*
X65948824Y-134775417D01*
X66072386Y-134724224D01*
X66183588Y-134649911D01*
X66227616Y-134605876D01*
X66228617Y-134604874D01*
X66228628Y-134604870D01*
X66233402Y-134600684D01*
X66262599Y-134578282D01*
X66273671Y-134571890D01*
X66304683Y-134559046D01*
X66317033Y-134555737D01*
X66353647Y-134550918D01*
X66360034Y-134550500D01*
X66400876Y-134550501D01*
X66400879Y-134550500D01*
X66695449Y-134550500D01*
X66719317Y-134550500D01*
X66719331Y-134550505D01*
X66739619Y-134550504D01*
X66739619Y-134550506D01*
X66844710Y-134550504D01*
X67053095Y-134523068D01*
X67256115Y-134468667D01*
X67450298Y-134388232D01*
X67632321Y-134283140D01*
X67799070Y-134155188D01*
X67838145Y-134116112D01*
X67838147Y-134116112D01*
X67838836Y-134115423D01*
X70324235Y-134115423D01*
X70324235Y-134234046D01*
X70354935Y-134348619D01*
X70354936Y-134348622D01*
X70407154Y-134439064D01*
X70414246Y-134451348D01*
X70498122Y-134535224D01*
X70498123Y-134535225D01*
X70498125Y-134535226D01*
X70532984Y-134555351D01*
X70532985Y-134555352D01*
X70535329Y-134556705D01*
X70554470Y-134570778D01*
X70582048Y-134583679D01*
X70600849Y-134594534D01*
X70606986Y-134596178D01*
X70615056Y-134599120D01*
X71039065Y-134797474D01*
X71052948Y-134807209D01*
X71862109Y-135616370D01*
X71864301Y-135618709D01*
X71967791Y-135736713D01*
X71974877Y-135744792D01*
X71978779Y-135749878D01*
X72071046Y-135887963D01*
X72074250Y-135893513D01*
X72147702Y-136042453D01*
X72150156Y-136048375D01*
X72203544Y-136205650D01*
X72205202Y-136211841D01*
X72237601Y-136374717D01*
X72238438Y-136381072D01*
X72249395Y-136548230D01*
X72249500Y-136551435D01*
X72249500Y-136556046D01*
X72246565Y-136572748D01*
X72087004Y-137012818D01*
X72083377Y-137020612D01*
X72080202Y-137026111D01*
X72080200Y-137026117D01*
X72075132Y-137045030D01*
X72073868Y-137049049D01*
X72064196Y-137075724D01*
X72060668Y-137086712D01*
X72060207Y-137088354D01*
X72060205Y-137088366D01*
X72059839Y-137097475D01*
X72058209Y-137108186D01*
X72049500Y-137140687D01*
X72049500Y-137259311D01*
X72080200Y-137373884D01*
X72080201Y-137373887D01*
X72124901Y-137451308D01*
X72139511Y-137476613D01*
X72223387Y-137560489D01*
X72326114Y-137619799D01*
X72354758Y-137627474D01*
X72440688Y-137650500D01*
X72440691Y-137650500D01*
X72559311Y-137650500D01*
X72618824Y-137634553D01*
X72673886Y-137619799D01*
X72776613Y-137560489D01*
X72860489Y-137476613D01*
X72919799Y-137373886D01*
X72944902Y-137280201D01*
X72950500Y-137259311D01*
X72950500Y-137140690D01*
X72948263Y-137132344D01*
X72939384Y-137099207D01*
X72935796Y-137075705D01*
X72925415Y-137047076D01*
X72919799Y-137026114D01*
X72916625Y-137020618D01*
X72912994Y-137012818D01*
X72753445Y-136572775D01*
X72750511Y-136556073D01*
X72750511Y-136430730D01*
X72750511Y-136430727D01*
X72719374Y-136194222D01*
X72674420Y-136026453D01*
X72657635Y-135963811D01*
X72657631Y-135963801D01*
X72566343Y-135743418D01*
X72447068Y-135536833D01*
X72301847Y-135347584D01*
X72237089Y-135282828D01*
X72237089Y-135282827D01*
X72237088Y-135282827D01*
X71407210Y-134452949D01*
X71397475Y-134439066D01*
X71197295Y-134011154D01*
X71194534Y-134000849D01*
X71183682Y-133982053D01*
X71182788Y-133980142D01*
X71182787Y-133980140D01*
X71170783Y-133954479D01*
X71165468Y-133944144D01*
X71164625Y-133942644D01*
X71164623Y-133942641D01*
X71158449Y-133935951D01*
X71152023Y-133927219D01*
X71151384Y-133926112D01*
X71135224Y-133898122D01*
X71051348Y-133814246D01*
X71040604Y-133808043D01*
X70948622Y-133754936D01*
X70948619Y-133754935D01*
X70834047Y-133724235D01*
X70834044Y-133724235D01*
X70715426Y-133724235D01*
X70715423Y-133724235D01*
X70600850Y-133754935D01*
X70600847Y-133754936D01*
X70498121Y-133814246D01*
X70498121Y-133814247D01*
X70414247Y-133898121D01*
X70414246Y-133898121D01*
X70354936Y-134000847D01*
X70354935Y-134000850D01*
X70324235Y-134115423D01*
X67838836Y-134115423D01*
X67859029Y-134095229D01*
X67859033Y-134095227D01*
X67876693Y-134077567D01*
X67881156Y-134073104D01*
X67904614Y-134049645D01*
X67904613Y-134049645D01*
X67921784Y-134032473D01*
X67935662Y-134022741D01*
X68363578Y-133822560D01*
X68373886Y-133819799D01*
X68392690Y-133808941D01*
X68420264Y-133796043D01*
X68430583Y-133790737D01*
X68432093Y-133789888D01*
X68438780Y-133783715D01*
X68447513Y-133777289D01*
X68476606Y-133760493D01*
X68476605Y-133760493D01*
X68476613Y-133760489D01*
X68560489Y-133676613D01*
X68619799Y-133573886D01*
X68635149Y-133516597D01*
X68650500Y-133459311D01*
X68650500Y-133340688D01*
X68622558Y-133236412D01*
X68619799Y-133226114D01*
X68560489Y-133123387D01*
X68476613Y-133039511D01*
X68432997Y-133014329D01*
X68373887Y-132980201D01*
X68373884Y-132980200D01*
X68259312Y-132949500D01*
X68259309Y-132949500D01*
X68140691Y-132949500D01*
X68140688Y-132949500D01*
X68026115Y-132980200D01*
X68026112Y-132980201D01*
X67923386Y-133039511D01*
X67923386Y-133039512D01*
X67839514Y-133123383D01*
X67839507Y-133123392D01*
X67819383Y-133158244D01*
X67819384Y-133158245D01*
X67818371Y-133160000D01*
X67818030Y-133160591D01*
X67803956Y-133179734D01*
X67791047Y-133207326D01*
X67789987Y-133209160D01*
X67789987Y-133209161D01*
X67780200Y-133226114D01*
X67780198Y-133226120D01*
X67778557Y-133232244D01*
X67775612Y-133240321D01*
X67577258Y-133664330D01*
X67567523Y-133678213D01*
X67567522Y-133678216D01*
X67543461Y-133702276D01*
X67520485Y-133725252D01*
X67517660Y-133727864D01*
X67390512Y-133836459D01*
X67384292Y-133840978D01*
X67243376Y-133927332D01*
X67236525Y-133930823D01*
X67083831Y-133994072D01*
X67076518Y-133996448D01*
X66915815Y-134035031D01*
X66908221Y-134036234D01*
X66741607Y-134049349D01*
X66737762Y-134049500D01*
X66302407Y-134049500D01*
X66302256Y-134049514D01*
X66289851Y-134049514D01*
X66209057Y-134065581D01*
X66172275Y-134058263D01*
X66151441Y-134027079D01*
X66150500Y-134017522D01*
X66150500Y-133940688D01*
X66123242Y-133838963D01*
X66119799Y-133826114D01*
X66113372Y-133814983D01*
X66102436Y-133796040D01*
X66060489Y-133723387D01*
X65976613Y-133639511D01*
X65902413Y-133596671D01*
X65873887Y-133580201D01*
X65873884Y-133580200D01*
X65759312Y-133549500D01*
X65759309Y-133549500D01*
X65640691Y-133549500D01*
X65640688Y-133549500D01*
X65599336Y-133560580D01*
X65599334Y-133560581D01*
X65596969Y-133561215D01*
X65574077Y-133564958D01*
X65551656Y-133573355D01*
X65549366Y-133573969D01*
X65549363Y-133573968D01*
X65526116Y-133580199D01*
X65526109Y-133580202D01*
X65516186Y-133585930D01*
X65508881Y-133589378D01*
X65089737Y-133746386D01*
X65072548Y-133749500D01*
X64331887Y-133749500D01*
X64314147Y-133746176D01*
X64311501Y-133745148D01*
X64311503Y-133745148D01*
X63796696Y-133654590D01*
X63786180Y-133654757D01*
X63772726Y-133653094D01*
X63759310Y-133649500D01*
X63759309Y-133649500D01*
X63640691Y-133649500D01*
X63640688Y-133649500D01*
X63526115Y-133680200D01*
X63526112Y-133680201D01*
X63423386Y-133739511D01*
X63423386Y-133739512D01*
X63339512Y-133823386D01*
X63339511Y-133823386D01*
X63280201Y-133926112D01*
X63280201Y-133926113D01*
X63255363Y-134018805D01*
X63232532Y-134048558D01*
X63198178Y-134054121D01*
X63193597Y-134053180D01*
X63184712Y-134049500D01*
X63176685Y-134049500D01*
X63176568Y-134049462D01*
X63134600Y-134049500D01*
X61449527Y-134049500D01*
X61414879Y-134035148D01*
X61401469Y-134010061D01*
X61379581Y-133900046D01*
X61372017Y-133862024D01*
X61364420Y-133843686D01*
X61314161Y-133722364D01*
X61307966Y-133713093D01*
X61230167Y-133596671D01*
X61185652Y-133552159D01*
X61131513Y-133498020D01*
X61131511Y-133498019D01*
X61128716Y-133495224D01*
X61128716Y-133495223D01*
X61128715Y-133495223D01*
X61122147Y-133488655D01*
X61122142Y-133488650D01*
X61020077Y-133414496D01*
X60907669Y-133357221D01*
X60907668Y-133357220D01*
X60907667Y-133357220D01*
X60787685Y-133318236D01*
X60787682Y-133318235D01*
X60691964Y-133303075D01*
X60663079Y-133298500D01*
X60663078Y-133298500D01*
X60446063Y-133298500D01*
X60441651Y-133298499D01*
X60441645Y-133298497D01*
X60423050Y-133298497D01*
X60408279Y-133292377D01*
X60388409Y-133284148D01*
X60132475Y-133028214D01*
X60122740Y-133014331D01*
X59924385Y-132590321D01*
X59921443Y-132582251D01*
X59919799Y-132576114D01*
X59909999Y-132559140D01*
X59908054Y-132555408D01*
X59896048Y-132529744D01*
X59890733Y-132519409D01*
X59889890Y-132517909D01*
X59889888Y-132517906D01*
X59883714Y-132511216D01*
X59877291Y-132502490D01*
X59869063Y-132488238D01*
X59864170Y-132451058D01*
X59887000Y-132421305D01*
X59917026Y-132415054D01*
X60325425Y-132461420D01*
X60330726Y-132461092D01*
X60346430Y-132462668D01*
X60352845Y-132464388D01*
X60352846Y-132464388D01*
X60471465Y-132464388D01*
X60528751Y-132449037D01*
X60586040Y-132433687D01*
X60688767Y-132374377D01*
X60772643Y-132290501D01*
X60831953Y-132187774D01*
X60847303Y-132130485D01*
X60862654Y-132073199D01*
X60862654Y-131954576D01*
X60834194Y-131848365D01*
X60831953Y-131840002D01*
X60772643Y-131737275D01*
X60688767Y-131653399D01*
X60673023Y-131644309D01*
X60586041Y-131594089D01*
X60586038Y-131594088D01*
X60495429Y-131569809D01*
X60471466Y-131563388D01*
X60471463Y-131563388D01*
X60352845Y-131563388D01*
X60352842Y-131563388D01*
X60238269Y-131594088D01*
X60238265Y-131594089D01*
X60168581Y-131634322D01*
X60164563Y-131636401D01*
X60144357Y-131645697D01*
X59805985Y-131891163D01*
X59777212Y-131900500D01*
X56931708Y-131900500D01*
X56925311Y-131900081D01*
X56918345Y-131899163D01*
X56888817Y-131895275D01*
X56876466Y-131891965D01*
X56845450Y-131879116D01*
X56834384Y-131872726D01*
X56805133Y-131850282D01*
X56800321Y-131846061D01*
X56768633Y-131814373D01*
X56768572Y-131814321D01*
X56755339Y-131801089D01*
X56755338Y-131801088D01*
X56692176Y-131758884D01*
X56644135Y-131726783D01*
X56644133Y-131726782D01*
X56634375Y-131722739D01*
X56618326Y-131711962D01*
X56615300Y-131708908D01*
X56615299Y-131708907D01*
X56615298Y-131708906D01*
X56343775Y-131525688D01*
X68948635Y-131525688D01*
X68948635Y-131644311D01*
X68979335Y-131758884D01*
X68979336Y-131758887D01*
X69026169Y-131840002D01*
X69038646Y-131861613D01*
X69122522Y-131945489D01*
X69157852Y-131965887D01*
X69224694Y-132004479D01*
X69225249Y-132004799D01*
X69253893Y-132012474D01*
X69339823Y-132035500D01*
X69339826Y-132035500D01*
X69458443Y-132035500D01*
X69458444Y-132035500D01*
X69492365Y-132026410D01*
X69492366Y-132026410D01*
X69495572Y-132025550D01*
X69519554Y-132022500D01*
X69570201Y-132005554D01*
X69573021Y-132004799D01*
X69573026Y-132004795D01*
X69573793Y-132004479D01*
X69577003Y-132003278D01*
X70026068Y-131853031D01*
X70041615Y-131850500D01*
X70256043Y-131850500D01*
X70272745Y-131853434D01*
X70712818Y-132012994D01*
X70712817Y-132012994D01*
X70716879Y-132014466D01*
X70726114Y-132019799D01*
X70747076Y-132025415D01*
X70775705Y-132035796D01*
X70775719Y-132035800D01*
X70775726Y-132035803D01*
X70778112Y-132036569D01*
X70786618Y-132039303D01*
X70788286Y-132039772D01*
X70797416Y-132040141D01*
X70808107Y-132041768D01*
X70840691Y-132050500D01*
X70840693Y-132050500D01*
X70959311Y-132050500D01*
X71016597Y-132035149D01*
X71073886Y-132019799D01*
X71176613Y-131960489D01*
X71260489Y-131876613D01*
X71319799Y-131773886D01*
X71337210Y-131708908D01*
X71350500Y-131659311D01*
X71350500Y-131617348D01*
X71364852Y-131582700D01*
X71399500Y-131568348D01*
X71420261Y-131572963D01*
X71662506Y-131686287D01*
X71710507Y-131708742D01*
X71724389Y-131718475D01*
X71726045Y-131720131D01*
X71726045Y-131720130D01*
X71749196Y-131743281D01*
X71764735Y-131758820D01*
X71764876Y-131758935D01*
X71807029Y-131801088D01*
X71809981Y-131804040D01*
X71998296Y-131948543D01*
X72203862Y-132067230D01*
X72423161Y-132158070D01*
X72652440Y-132219510D01*
X72887777Y-132250497D01*
X72956635Y-132250498D01*
X72956639Y-132250500D01*
X73006462Y-132250500D01*
X73050632Y-132250501D01*
X73050635Y-132250500D01*
X73856043Y-132250500D01*
X73872745Y-132253434D01*
X74312818Y-132412994D01*
X74312817Y-132412994D01*
X74316879Y-132414466D01*
X74326114Y-132419799D01*
X74347076Y-132425415D01*
X74375705Y-132435796D01*
X74375719Y-132435800D01*
X74375726Y-132435803D01*
X74378112Y-132436569D01*
X74386618Y-132439303D01*
X74388286Y-132439772D01*
X74397416Y-132440141D01*
X74408107Y-132441768D01*
X74440691Y-132450500D01*
X74440693Y-132450500D01*
X74559311Y-132450500D01*
X74616597Y-132435149D01*
X74673886Y-132419799D01*
X74776613Y-132360489D01*
X74860489Y-132276613D01*
X74919799Y-132173886D01*
X74935149Y-132116597D01*
X74950500Y-132059311D01*
X74950500Y-131940688D01*
X74926276Y-131850287D01*
X74919799Y-131826114D01*
X74860489Y-131723387D01*
X74776613Y-131639511D01*
X74769591Y-131635457D01*
X74673887Y-131580201D01*
X74673884Y-131580200D01*
X74559312Y-131549500D01*
X74559309Y-131549500D01*
X74440691Y-131549500D01*
X74440688Y-131549500D01*
X74401830Y-131559912D01*
X74399212Y-131560614D01*
X74375707Y-131564203D01*
X74347076Y-131574583D01*
X74345029Y-131575132D01*
X74345028Y-131575131D01*
X74326115Y-131580200D01*
X74326112Y-131580202D01*
X74320615Y-131583375D01*
X74312823Y-131587002D01*
X73872742Y-131746566D01*
X73856040Y-131749500D01*
X73008400Y-131749500D01*
X73004554Y-131749349D01*
X72805421Y-131733672D01*
X72797827Y-131732469D01*
X72605478Y-131686287D01*
X72598166Y-131683911D01*
X72415409Y-131608207D01*
X72408558Y-131604716D01*
X72239894Y-131501356D01*
X72233674Y-131496837D01*
X72133307Y-131411114D01*
X72081597Y-131366948D01*
X72078773Y-131364337D01*
X72078654Y-131364218D01*
X72068919Y-131350335D01*
X71870564Y-130926325D01*
X71867622Y-130918255D01*
X71865978Y-130912118D01*
X71856178Y-130895144D01*
X71854233Y-130891412D01*
X71842227Y-130865748D01*
X71836912Y-130855413D01*
X71836069Y-130853913D01*
X71836067Y-130853910D01*
X71829893Y-130847220D01*
X71823467Y-130838488D01*
X71810991Y-130816879D01*
X71806668Y-130809391D01*
X71722792Y-130725515D01*
X71620066Y-130666205D01*
X71620063Y-130666204D01*
X71505491Y-130635504D01*
X71505488Y-130635504D01*
X71386870Y-130635504D01*
X71386867Y-130635504D01*
X71272294Y-130666204D01*
X71272291Y-130666205D01*
X71169565Y-130725515D01*
X71169565Y-130725516D01*
X71085691Y-130809390D01*
X71085690Y-130809390D01*
X71026380Y-130912116D01*
X71026379Y-130912119D01*
X70995679Y-131026692D01*
X70995679Y-131100500D01*
X70981327Y-131135148D01*
X70946679Y-131149500D01*
X70840688Y-131149500D01*
X70801830Y-131159912D01*
X70796537Y-131161022D01*
X70794249Y-131161371D01*
X70757833Y-131152408D01*
X70738420Y-131120320D01*
X70739530Y-131100248D01*
X70750500Y-131059310D01*
X70750500Y-130940690D01*
X70744486Y-130918249D01*
X70739384Y-130899207D01*
X70735796Y-130875705D01*
X70725415Y-130847076D01*
X70719799Y-130826114D01*
X70716625Y-130820618D01*
X70712994Y-130812818D01*
X70553434Y-130372745D01*
X70550500Y-130356043D01*
X70550500Y-129108386D01*
X70564852Y-129073738D01*
X70572145Y-129067733D01*
X70843814Y-128884957D01*
X70852196Y-128876541D01*
X70862413Y-128868687D01*
X70876606Y-128860493D01*
X70876605Y-128860493D01*
X70876613Y-128860489D01*
X70960489Y-128776613D01*
X71019799Y-128673886D01*
X71035149Y-128616597D01*
X71050500Y-128559311D01*
X71050500Y-128440688D01*
X71019799Y-128326115D01*
X71019798Y-128326112D01*
X70960488Y-128223386D01*
X70876613Y-128139511D01*
X70773887Y-128080201D01*
X70773884Y-128080200D01*
X70659312Y-128049500D01*
X70659309Y-128049500D01*
X70540691Y-128049500D01*
X70540688Y-128049500D01*
X70426115Y-128080200D01*
X70426112Y-128080201D01*
X70323386Y-128139511D01*
X70323386Y-128139512D01*
X70239512Y-128223386D01*
X70239511Y-128223386D01*
X70180201Y-128326111D01*
X70180199Y-128326117D01*
X70161053Y-128397573D01*
X70159124Y-128403322D01*
X70150830Y-128423751D01*
X70083348Y-128776057D01*
X70080498Y-128785579D01*
X70078798Y-128789685D01*
X70078796Y-128789690D01*
X70051668Y-128926112D01*
X70049496Y-128937032D01*
X70049496Y-128954046D01*
X70048424Y-128961265D01*
X70048219Y-128963192D01*
X70049496Y-128972823D01*
X70049496Y-128976061D01*
X70049497Y-128976062D01*
X70049500Y-129012116D01*
X70049500Y-130356046D01*
X70046565Y-130372748D01*
X69898137Y-130782115D01*
X69885532Y-130816879D01*
X69880201Y-130826114D01*
X69874588Y-130847059D01*
X69873872Y-130849035D01*
X69873868Y-130849049D01*
X69864196Y-130875724D01*
X69860668Y-130886712D01*
X69860207Y-130888354D01*
X69860205Y-130888366D01*
X69859839Y-130897475D01*
X69858209Y-130908186D01*
X69849500Y-130940687D01*
X69849500Y-131059311D01*
X69880200Y-131173884D01*
X69880201Y-131173887D01*
X69896073Y-131201377D01*
X69900969Y-131238559D01*
X69878138Y-131268312D01*
X69840956Y-131273208D01*
X69835811Y-131271519D01*
X69596178Y-131177923D01*
X69596178Y-131177924D01*
X69592719Y-131176573D01*
X69573021Y-131165201D01*
X69543017Y-131157161D01*
X69530847Y-131152408D01*
X69527174Y-131150973D01*
X69514492Y-131146640D01*
X69512566Y-131146074D01*
X69512559Y-131146073D01*
X69504635Y-131145705D01*
X69494229Y-131144088D01*
X69458447Y-131134500D01*
X69458444Y-131134500D01*
X69339826Y-131134500D01*
X69339823Y-131134500D01*
X69225250Y-131165200D01*
X69225247Y-131165201D01*
X69122521Y-131224511D01*
X69122521Y-131224512D01*
X69038647Y-131308386D01*
X69038646Y-131308386D01*
X68979336Y-131411112D01*
X68979335Y-131411115D01*
X68948635Y-131525688D01*
X56343775Y-131525688D01*
X56187451Y-131420204D01*
X56167304Y-131411765D01*
X56161744Y-131409009D01*
X56134669Y-131393377D01*
X56097991Y-131372201D01*
X56097988Y-131372200D01*
X55983416Y-131341500D01*
X55983413Y-131341500D01*
X55864795Y-131341500D01*
X55864792Y-131341500D01*
X55750219Y-131372200D01*
X55750216Y-131372201D01*
X55647490Y-131431511D01*
X55647490Y-131431512D01*
X55563616Y-131515386D01*
X55563615Y-131515386D01*
X55504305Y-131618112D01*
X55504304Y-131618115D01*
X55473604Y-131732688D01*
X46200500Y-131732688D01*
X46200500Y-129040688D01*
X52849500Y-129040688D01*
X52849500Y-129159311D01*
X52880200Y-129273884D01*
X52880201Y-129273887D01*
X52911025Y-129327274D01*
X52939511Y-129376613D01*
X53023387Y-129460489D01*
X53060594Y-129481970D01*
X53079735Y-129496043D01*
X53107313Y-129508944D01*
X53126114Y-129519799D01*
X53132251Y-129521443D01*
X53140321Y-129524385D01*
X53564331Y-129722739D01*
X53578214Y-129732474D01*
X54514513Y-130668773D01*
X54514515Y-130668777D01*
X54527489Y-130681750D01*
X54531624Y-130685886D01*
X54531652Y-130685955D01*
X54617013Y-130771311D01*
X54617023Y-130771319D01*
X54776967Y-130894043D01*
X54776976Y-130894049D01*
X54857766Y-130940690D01*
X54951593Y-130994858D01*
X55137872Y-131072011D01*
X55332629Y-131124191D01*
X55332633Y-131124191D01*
X55332634Y-131124192D01*
X55375859Y-131129881D01*
X55532529Y-131150502D01*
X55633342Y-131150500D01*
X55862000Y-131150500D01*
X55868823Y-131150977D01*
X55871627Y-131151371D01*
X55894231Y-131154550D01*
X55894236Y-131154549D01*
X55894238Y-131154550D01*
X55964274Y-131150579D01*
X55967048Y-131150500D01*
X55985800Y-131150500D01*
X55985833Y-131150513D01*
X56006110Y-131150513D01*
X56006110Y-131150514D01*
X56068964Y-131150513D01*
X56106872Y-131142970D01*
X56113642Y-131142110D01*
X56443197Y-131123427D01*
X56453053Y-131123427D01*
X56457241Y-131122304D01*
X56458174Y-131122220D01*
X56459757Y-131122022D01*
X56461424Y-131121403D01*
X56465776Y-131120017D01*
X56567630Y-131092726D01*
X56670357Y-131033416D01*
X56754233Y-130949540D01*
X56813543Y-130846813D01*
X56833774Y-130771311D01*
X56844244Y-130732238D01*
X56844244Y-130613615D01*
X56813543Y-130499042D01*
X56813542Y-130499039D01*
X56761034Y-130408094D01*
X56754233Y-130396314D01*
X56670357Y-130312438D01*
X56567631Y-130253128D01*
X56567628Y-130253127D01*
X56453056Y-130222427D01*
X56453053Y-130222427D01*
X56334435Y-130222427D01*
X56334432Y-130222427D01*
X56219859Y-130253127D01*
X56219856Y-130253128D01*
X56117130Y-130312438D01*
X56117129Y-130312439D01*
X56033257Y-130396310D01*
X56031303Y-130398858D01*
X56031104Y-130398705D01*
X56024906Y-130406312D01*
X56024922Y-130406326D01*
X56024697Y-130406569D01*
X56023895Y-130407554D01*
X56023294Y-130408088D01*
X55814933Y-130633741D01*
X55813981Y-130634180D01*
X55813581Y-130635148D01*
X55797088Y-130641979D01*
X55780884Y-130649461D01*
X55778933Y-130649500D01*
X55681453Y-130649500D01*
X55681441Y-130649499D01*
X55635251Y-130649499D01*
X55631408Y-130649348D01*
X55474932Y-130637038D01*
X55467337Y-130635835D01*
X55316597Y-130599649D01*
X55309285Y-130597274D01*
X55166051Y-130537949D01*
X55159200Y-130534458D01*
X55027020Y-130453464D01*
X55020799Y-130448945D01*
X54901725Y-130347251D01*
X54898900Y-130344639D01*
X54879985Y-130325725D01*
X54879984Y-130325724D01*
X53932475Y-129378214D01*
X53922740Y-129364331D01*
X53724385Y-128940321D01*
X53721443Y-128932251D01*
X53719799Y-128926114D01*
X53709999Y-128909140D01*
X53708054Y-128905408D01*
X53696048Y-128879744D01*
X53690733Y-128869409D01*
X53689890Y-128867909D01*
X53689888Y-128867906D01*
X53683714Y-128861216D01*
X53677288Y-128852484D01*
X53660488Y-128823386D01*
X53576613Y-128739511D01*
X53473887Y-128680201D01*
X53473884Y-128680200D01*
X53359312Y-128649500D01*
X53359309Y-128649500D01*
X53240691Y-128649500D01*
X53240688Y-128649500D01*
X53126115Y-128680200D01*
X53126112Y-128680201D01*
X53023386Y-128739511D01*
X53023386Y-128739512D01*
X52939512Y-128823386D01*
X52939511Y-128823386D01*
X52880201Y-128926112D01*
X52880200Y-128926115D01*
X52849500Y-129040688D01*
X46200500Y-129040688D01*
X46200500Y-125356690D01*
X54149500Y-125356690D01*
X54149500Y-125475313D01*
X54180200Y-125589886D01*
X54180201Y-125589889D01*
X54224495Y-125666607D01*
X54239511Y-125692615D01*
X54323387Y-125776491D01*
X54426114Y-125835801D01*
X54445047Y-125840874D01*
X54540688Y-125866502D01*
X54540691Y-125866502D01*
X54659310Y-125866502D01*
X54666179Y-125864660D01*
X54700793Y-125855386D01*
X54724294Y-125851798D01*
X54752920Y-125841418D01*
X54773886Y-125835801D01*
X54779386Y-125832624D01*
X54787169Y-125828999D01*
X55227255Y-125669436D01*
X55243957Y-125666502D01*
X55413831Y-125666502D01*
X55456398Y-125666502D01*
X55459602Y-125666606D01*
X55692473Y-125681870D01*
X55698828Y-125682707D01*
X55926127Y-125727920D01*
X55932317Y-125729578D01*
X56002398Y-125753367D01*
X56151794Y-125804080D01*
X56157701Y-125806527D01*
X56365577Y-125909040D01*
X56371112Y-125912235D01*
X56553506Y-126034107D01*
X56563823Y-126041001D01*
X56568908Y-126044903D01*
X56744374Y-126198783D01*
X56746714Y-126200975D01*
X60189750Y-129644010D01*
X60193978Y-129648831D01*
X60219813Y-129682504D01*
X60226209Y-129693584D01*
X60241208Y-129729804D01*
X60244517Y-129742159D01*
X60249644Y-129781123D01*
X60249643Y-129793914D01*
X60244537Y-129832676D01*
X60241226Y-129845030D01*
X60226222Y-129881249D01*
X60219825Y-129892328D01*
X60193885Y-129926129D01*
X60189664Y-129930943D01*
X60182645Y-129937962D01*
X60160814Y-129959792D01*
X60158020Y-129962586D01*
X60158013Y-129962594D01*
X59797086Y-130323521D01*
X59783201Y-130333257D01*
X59359189Y-130531613D01*
X59359189Y-130531612D01*
X59355275Y-130533442D01*
X59344984Y-130536201D01*
X59326213Y-130547037D01*
X59324301Y-130547932D01*
X59324284Y-130547942D01*
X59298599Y-130559958D01*
X59288210Y-130565302D01*
X59286725Y-130566138D01*
X59286720Y-130566142D01*
X59280033Y-130572314D01*
X59271303Y-130578739D01*
X59242255Y-130595511D01*
X59158382Y-130679385D01*
X59158381Y-130679386D01*
X59099073Y-130782110D01*
X59099070Y-130782115D01*
X59068370Y-130896688D01*
X59068370Y-131015311D01*
X59099070Y-131129884D01*
X59099071Y-131129887D01*
X59132206Y-131187277D01*
X59158381Y-131232613D01*
X59242257Y-131316489D01*
X59344984Y-131375799D01*
X59373628Y-131383474D01*
X59459558Y-131406500D01*
X59459561Y-131406500D01*
X59578181Y-131406500D01*
X59635467Y-131391149D01*
X59692756Y-131375799D01*
X59795483Y-131316489D01*
X59879359Y-131232613D01*
X59900843Y-131195400D01*
X59914913Y-131176264D01*
X59927811Y-131148690D01*
X59928995Y-131146641D01*
X59938665Y-131129893D01*
X59938665Y-131129892D01*
X59938669Y-131129886D01*
X59939357Y-131127314D01*
X59940313Y-131123750D01*
X59943258Y-131115670D01*
X60141610Y-130691664D01*
X60151341Y-130677787D01*
X60581534Y-130247596D01*
X60581534Y-130247594D01*
X60584921Y-130244208D01*
X60585043Y-130244058D01*
X60595069Y-130234034D01*
X60671745Y-130119294D01*
X60724563Y-129991802D01*
X60751495Y-129856455D01*
X60751500Y-129787454D01*
X60751503Y-129743285D01*
X60751501Y-129743281D01*
X60751502Y-129739141D01*
X60751476Y-129738835D01*
X60751478Y-129718453D01*
X60724565Y-129583099D01*
X60724564Y-129583097D01*
X60724562Y-129583089D01*
X60671765Y-129455601D01*
X60671759Y-129455591D01*
X60595101Y-129340847D01*
X60595100Y-129340846D01*
X60584845Y-129330589D01*
X60581537Y-129327281D01*
X60581534Y-129327274D01*
X60543556Y-129289296D01*
X60543554Y-129289294D01*
X60543554Y-129289293D01*
X60512304Y-129258039D01*
X60512271Y-129258011D01*
X57061807Y-125807546D01*
X57061800Y-125807540D01*
X57007631Y-125753371D01*
X57007619Y-125753360D01*
X56803729Y-125590764D01*
X56582917Y-125452018D01*
X56582913Y-125452016D01*
X56347963Y-125338870D01*
X56347957Y-125338867D01*
X56101794Y-125252731D01*
X56101795Y-125252731D01*
X55980703Y-125225093D01*
X55847546Y-125194701D01*
X55847540Y-125194700D01*
X55847539Y-125194700D01*
X55588397Y-125165502D01*
X55588396Y-125165502D01*
X55507829Y-125165502D01*
X55243958Y-125165502D01*
X55227256Y-125162568D01*
X54787178Y-125003005D01*
X54787178Y-125003004D01*
X54783115Y-125001531D01*
X54773886Y-124996203D01*
X54752925Y-124990586D01*
X54750950Y-124989870D01*
X54750943Y-124989868D01*
X54724282Y-124980201D01*
X54713393Y-124976702D01*
X54711733Y-124976235D01*
X54711735Y-124976235D01*
X54709450Y-124976142D01*
X54702590Y-124975863D01*
X54691903Y-124974235D01*
X54659309Y-124965502D01*
X54540691Y-124965502D01*
X54540688Y-124965502D01*
X54426115Y-124996202D01*
X54426112Y-124996203D01*
X54323386Y-125055513D01*
X54323386Y-125055514D01*
X54239512Y-125139388D01*
X54239511Y-125139388D01*
X54180201Y-125242114D01*
X54180200Y-125242117D01*
X54149500Y-125356690D01*
X46200500Y-125356690D01*
X46200500Y-121340688D01*
X70149500Y-121340688D01*
X70149500Y-121459311D01*
X70180200Y-121573884D01*
X70180201Y-121573887D01*
X70239511Y-121676613D01*
X70262188Y-121699290D01*
X70262966Y-121700085D01*
X70532105Y-121981732D01*
X70545666Y-122016696D01*
X70542744Y-122032286D01*
X70385532Y-122465879D01*
X70380201Y-122475114D01*
X70374588Y-122496059D01*
X70373872Y-122498035D01*
X70373868Y-122498049D01*
X70364196Y-122524724D01*
X70360668Y-122535712D01*
X70360207Y-122537354D01*
X70360205Y-122537366D01*
X70359839Y-122546475D01*
X70358209Y-122557186D01*
X70349500Y-122589687D01*
X70349500Y-122708311D01*
X70380200Y-122822884D01*
X70380201Y-122822887D01*
X70439511Y-122925613D01*
X70523387Y-123009489D01*
X70626114Y-123068799D01*
X70654758Y-123076474D01*
X70740688Y-123099500D01*
X70740691Y-123099500D01*
X70859311Y-123099500D01*
X70916597Y-123084149D01*
X70973886Y-123068799D01*
X71076613Y-123009489D01*
X71160489Y-122925613D01*
X71219799Y-122822886D01*
X71235149Y-122765597D01*
X71250500Y-122708311D01*
X71250500Y-122589690D01*
X71248263Y-122581344D01*
X71239384Y-122548207D01*
X71235796Y-122524705D01*
X71225415Y-122496076D01*
X71219799Y-122475114D01*
X71216625Y-122469618D01*
X71212994Y-122461818D01*
X71053434Y-122021745D01*
X71050500Y-122005043D01*
X71050500Y-121949440D01*
X71051351Y-121940348D01*
X71055377Y-121919025D01*
X71055378Y-121919021D01*
X71050502Y-121419215D01*
X71050500Y-121418737D01*
X71050500Y-121340688D01*
X71019799Y-121226115D01*
X71019798Y-121226112D01*
X70960488Y-121123386D01*
X70876613Y-121039511D01*
X70773887Y-120980201D01*
X70773884Y-120980200D01*
X70659312Y-120949500D01*
X70659309Y-120949500D01*
X70540691Y-120949500D01*
X70540688Y-120949500D01*
X70426115Y-120980200D01*
X70426112Y-120980201D01*
X70323386Y-121039511D01*
X70323386Y-121039512D01*
X70239512Y-121123386D01*
X70239511Y-121123386D01*
X70180201Y-121226112D01*
X70180200Y-121226115D01*
X70149500Y-121340688D01*
X46200500Y-121340688D01*
X46200500Y-121001603D01*
X46200605Y-120998398D01*
X46215685Y-120768318D01*
X46216518Y-120761984D01*
X46261193Y-120537386D01*
X46262841Y-120531233D01*
X46336451Y-120314389D01*
X46338896Y-120308487D01*
X46440174Y-120103114D01*
X46443362Y-120097593D01*
X46570581Y-119907196D01*
X46574473Y-119902124D01*
X46725451Y-119729966D01*
X46729966Y-119725451D01*
X46902124Y-119574473D01*
X46907196Y-119570581D01*
X47097593Y-119443362D01*
X47103114Y-119440174D01*
X47308487Y-119338896D01*
X47314389Y-119336451D01*
X47531233Y-119262841D01*
X47537386Y-119261193D01*
X47761984Y-119216518D01*
X47768314Y-119215685D01*
X47998398Y-119200604D01*
X48001603Y-119200500D01*
X48039882Y-119200500D01*
X76960118Y-119200500D01*
X76998397Y-119200500D01*
X77001601Y-119200604D01*
G37*
%TD.AperFunction*%
%TD*%
%TA.AperFunction,Conductor*%
%TO.N,/BIAS_1V5*%
G36*
X71700523Y-130930120D02*
G01*
X71701372Y-130931630D01*
X71773259Y-131085297D01*
X71892970Y-131341197D01*
X71933601Y-131428050D01*
X71934002Y-131436996D01*
X71931276Y-131441281D01*
X71801456Y-131571101D01*
X71793183Y-131574528D01*
X71788226Y-131573426D01*
X71637607Y-131502965D01*
X71291805Y-131341197D01*
X71285764Y-131334587D01*
X71286165Y-131325641D01*
X71287014Y-131324131D01*
X71444164Y-131087267D01*
X71447442Y-131083989D01*
X71684306Y-130926838D01*
X71693094Y-130925120D01*
X71700523Y-130930120D01*
G37*
%TD.AperFunction*%
%TD*%
%TA.AperFunction,Conductor*%
%TO.N,Net-(U1-A1)*%
G36*
X56152608Y-130511783D02*
G01*
X56155319Y-130513587D01*
X56390679Y-130670222D01*
X56395668Y-130677658D01*
X56395680Y-130677717D01*
X56449696Y-130953996D01*
X56447920Y-130962773D01*
X56440458Y-130967724D01*
X56438875Y-130967922D01*
X55885429Y-130999299D01*
X55876975Y-130996346D01*
X55873086Y-130988280D01*
X55873067Y-130987618D01*
X55873067Y-130804575D01*
X55876171Y-130796638D01*
X56137535Y-130513585D01*
X56145662Y-130509833D01*
X56152608Y-130511783D01*
G37*
%TD.AperFunction*%
%TD*%
%TA.AperFunction,Conductor*%
%TO.N,/COIL_FILT_N*%
G36*
X61466969Y-135072986D02*
G01*
X61468479Y-135073835D01*
X61705341Y-135230984D01*
X61708622Y-135234265D01*
X61865771Y-135471127D01*
X61867490Y-135479915D01*
X61862490Y-135487344D01*
X61860980Y-135488193D01*
X61364560Y-135720422D01*
X61355614Y-135720823D01*
X61351329Y-135718097D01*
X61221509Y-135588277D01*
X61218082Y-135580004D01*
X61219182Y-135575051D01*
X61451413Y-135078625D01*
X61458023Y-135072585D01*
X61466969Y-135072986D01*
G37*
%TD.AperFunction*%
%TD*%
%TA.AperFunction,Conductor*%
%TO.N,/VREF_3V0*%
G36*
X70889206Y-121345948D02*
G01*
X70894157Y-121353410D01*
X70894373Y-121355541D01*
X70899885Y-121920538D01*
X70896539Y-121928844D01*
X70888300Y-121932351D01*
X70888186Y-121932352D01*
X70705003Y-121932352D01*
X70696730Y-121928925D01*
X70696544Y-121928735D01*
X70360156Y-121576714D01*
X70356918Y-121568365D01*
X70360532Y-121560172D01*
X70362085Y-121558923D01*
X70598040Y-121400317D01*
X70602314Y-121398547D01*
X70880430Y-121344172D01*
X70889206Y-121345948D01*
G37*
%TD.AperFunction*%
%TD*%
%TA.AperFunction,Conductor*%
%TO.N,/COIL_FILT_N*%
G36*
X64095930Y-135680835D02*
G01*
X64103358Y-135685834D01*
X64105077Y-135694622D01*
X64104608Y-135696290D01*
X63917796Y-136211524D01*
X63911755Y-136218134D01*
X63906797Y-136219236D01*
X63723203Y-136219236D01*
X63714930Y-136215809D01*
X63712204Y-136211524D01*
X63664544Y-136080078D01*
X63525391Y-135696288D01*
X63525792Y-135687344D01*
X63532402Y-135681303D01*
X63534056Y-135680837D01*
X63812682Y-135624469D01*
X63817318Y-135624469D01*
X64095930Y-135680835D01*
G37*
%TD.AperFunction*%
%TD*%
%TA.AperFunction,Conductor*%
%TO.N,Net-(C12-Pad1)*%
G36*
X70317264Y-128443721D02*
G01*
X70595230Y-128498064D01*
X70602692Y-128503015D01*
X70602726Y-128503065D01*
X70760222Y-128739750D01*
X70761952Y-128748536D01*
X70757012Y-128755939D01*
X70403482Y-128993791D01*
X70396683Y-128995781D01*
X70214275Y-128991607D01*
X70206083Y-128987992D01*
X70202846Y-128979642D01*
X70203051Y-128977715D01*
X70303554Y-128453006D01*
X70308476Y-128445527D01*
X70317246Y-128443718D01*
X70317264Y-128443721D01*
G37*
%TD.AperFunction*%
%TD*%
%TA.AperFunction,Conductor*%
%TO.N,Net-(U1-A0)*%
G36*
X59874147Y-130470902D02*
G01*
X60003967Y-130600722D01*
X60007394Y-130608995D01*
X60006292Y-130613953D01*
X59774063Y-131110373D01*
X59767453Y-131116414D01*
X59758507Y-131116013D01*
X59756997Y-131115164D01*
X59520135Y-130958015D01*
X59516854Y-130954734D01*
X59359705Y-130717872D01*
X59357986Y-130709084D01*
X59362986Y-130701655D01*
X59364491Y-130700808D01*
X59860918Y-130468576D01*
X59869862Y-130468176D01*
X59874147Y-130470902D01*
G37*
%TD.AperFunction*%
%TD*%
%TA.AperFunction,Conductor*%
%TO.N,+5VA*%
G36*
X64284563Y-133898298D02*
G01*
X64292117Y-133903106D01*
X64294236Y-133909821D01*
X64294236Y-134288800D01*
X64290809Y-134297073D01*
X64282536Y-134300500D01*
X64049111Y-134300500D01*
X64042350Y-134303300D01*
X64040154Y-134303966D01*
X63976130Y-134316688D01*
X63899467Y-134348426D01*
X63899458Y-134348431D01*
X63858798Y-134375589D01*
X63854327Y-134377383D01*
X63769760Y-134392259D01*
X63761018Y-134390317D01*
X63756265Y-134383056D01*
X63755117Y-134377383D01*
X63699469Y-134102318D01*
X63699469Y-134097680D01*
X63737475Y-133909821D01*
X63756265Y-133816942D01*
X63761265Y-133809514D01*
X63769760Y-133807740D01*
X64284563Y-133898298D01*
G37*
%TD.AperFunction*%
%TD*%
%TA.AperFunction,Conductor*%
%TO.N,/COIL_FILT_P*%
G36*
X63822633Y-137205571D02*
G01*
X64008453Y-137365549D01*
X64012486Y-137373544D01*
X64011540Y-137379101D01*
X63918066Y-137592985D01*
X63911613Y-137599194D01*
X63907345Y-137600000D01*
X63722655Y-137600000D01*
X63714382Y-137596573D01*
X63711934Y-137592985D01*
X63618459Y-137379101D01*
X63618286Y-137370148D01*
X63621543Y-137365552D01*
X63807366Y-137205571D01*
X63815872Y-137202772D01*
X63822633Y-137205571D01*
G37*
%TD.AperFunction*%
%TD*%
%TA.AperFunction,Conductor*%
%TO.N,Net-(U1-A0)*%
G36*
X54671282Y-125126391D02*
G01*
X55186525Y-125313206D01*
X55193134Y-125319246D01*
X55194236Y-125324204D01*
X55194236Y-125507799D01*
X55190809Y-125516072D01*
X55186524Y-125518798D01*
X54671290Y-125705610D01*
X54662344Y-125705209D01*
X54656303Y-125698599D01*
X54655837Y-125696941D01*
X54599469Y-125418320D01*
X54599469Y-125413682D01*
X54655835Y-125135069D01*
X54660834Y-125127643D01*
X54669622Y-125125924D01*
X54671282Y-125126391D01*
G37*
%TD.AperFunction*%
%TD*%
%TA.AperFunction,Conductor*%
%TO.N,/BIAS_1V5*%
G36*
X74437655Y-131710792D02*
G01*
X74443696Y-131717402D01*
X74444165Y-131719070D01*
X74500530Y-131997680D01*
X74500530Y-132002320D01*
X74444165Y-132280929D01*
X74439165Y-132288358D01*
X74430377Y-132290077D01*
X74428709Y-132289608D01*
X73913476Y-132102796D01*
X73906866Y-132096755D01*
X73905764Y-132091797D01*
X73905764Y-131908202D01*
X73909191Y-131899929D01*
X73913473Y-131897204D01*
X74428711Y-131710391D01*
X74437655Y-131710792D01*
G37*
%TD.AperFunction*%
%TD*%
%TA.AperFunction,Conductor*%
%TO.N,/BIAS_1V5*%
G36*
X65749682Y-136502103D02*
G01*
X65756015Y-136508433D01*
X65756690Y-136515158D01*
X65701860Y-136795585D01*
X65696909Y-136803047D01*
X65696850Y-136803086D01*
X65461662Y-136959296D01*
X65452875Y-136961019D01*
X65445443Y-136956023D01*
X65444686Y-136954704D01*
X65370283Y-136803086D01*
X65223860Y-136504705D01*
X65223292Y-136495771D01*
X65223555Y-136495076D01*
X65293594Y-136325990D01*
X65299925Y-136319660D01*
X65308874Y-136319658D01*
X65749682Y-136502103D01*
G37*
%TD.AperFunction*%
%TD*%
%TA.AperFunction,Conductor*%
%TO.N,/VOUT*%
G36*
X71029079Y-134018851D02*
G01*
X71029928Y-134020361D01*
X71101815Y-134174028D01*
X71221526Y-134429928D01*
X71262157Y-134516781D01*
X71262558Y-134525727D01*
X71259832Y-134530012D01*
X71130012Y-134659832D01*
X71121739Y-134663259D01*
X71116782Y-134662157D01*
X70966163Y-134591696D01*
X70620361Y-134429928D01*
X70614320Y-134423318D01*
X70614721Y-134414372D01*
X70615570Y-134412862D01*
X70772720Y-134175998D01*
X70775998Y-134172720D01*
X71012862Y-134015569D01*
X71021650Y-134013851D01*
X71029079Y-134018851D01*
G37*
%TD.AperFunction*%
%TD*%
%TA.AperFunction,Conductor*%
%TO.N,Net-(U1-S2)*%
G36*
X56100473Y-131549103D02*
G01*
X56100485Y-131549111D01*
X56528320Y-131837805D01*
X56533261Y-131845274D01*
X56531908Y-131853354D01*
X56440173Y-132012237D01*
X56433069Y-132017688D01*
X56431799Y-132017954D01*
X55993655Y-132084560D01*
X55984961Y-132082416D01*
X55980428Y-132075304D01*
X55934074Y-131845274D01*
X55924203Y-131796289D01*
X55925928Y-131787503D01*
X55925929Y-131787501D01*
X56084234Y-131552277D01*
X56091697Y-131547327D01*
X56100473Y-131549103D01*
G37*
%TD.AperFunction*%
%TD*%
%TA.AperFunction,Conductor*%
%TO.N,/VOUT*%
G36*
X72600070Y-136609191D02*
G01*
X72602796Y-136613476D01*
X72789608Y-137128709D01*
X72789207Y-137137655D01*
X72782597Y-137143696D01*
X72780929Y-137144165D01*
X72502320Y-137200530D01*
X72497680Y-137200530D01*
X72219070Y-137144165D01*
X72211641Y-137139165D01*
X72209922Y-137130377D01*
X72210387Y-137128720D01*
X72397204Y-136613476D01*
X72403245Y-136606866D01*
X72408203Y-136605764D01*
X72591797Y-136605764D01*
X72600070Y-136609191D01*
G37*
%TD.AperFunction*%
%TD*%
%TA.AperFunction,Conductor*%
%TO.N,Net-(U1-S2)*%
G36*
X60252008Y-131774168D02*
G01*
X60252247Y-131774511D01*
X60410426Y-132009830D01*
X60412197Y-132018608D01*
X60412184Y-132018677D01*
X60355754Y-132297608D01*
X60350754Y-132305037D01*
X60342966Y-132306913D01*
X59860849Y-132252178D01*
X59853015Y-132247840D01*
X59850469Y-132240553D01*
X59850469Y-132056967D01*
X59853896Y-132048694D01*
X59855299Y-132047496D01*
X59907222Y-132009830D01*
X60235668Y-131771566D01*
X60244376Y-131769483D01*
X60252008Y-131774168D01*
G37*
%TD.AperFunction*%
%TD*%
%TA.AperFunction,Conductor*%
%TO.N,/COIL_FILT_N*%
G36*
X63915618Y-135914427D02*
G01*
X63918066Y-135918015D01*
X64011540Y-136131897D01*
X64011713Y-136140850D01*
X64008453Y-136145449D01*
X63822634Y-136305427D01*
X63814128Y-136308227D01*
X63807366Y-136305427D01*
X63621546Y-136145449D01*
X63617513Y-136137454D01*
X63618458Y-136131899D01*
X63711934Y-135918014D01*
X63718387Y-135911806D01*
X63722655Y-135911000D01*
X63907345Y-135911000D01*
X63915618Y-135914427D01*
G37*
%TD.AperFunction*%
%TD*%
%TA.AperFunction,Conductor*%
%TO.N,/BIAS_1V5*%
G36*
X65460317Y-136639860D02*
G01*
X65461126Y-136640351D01*
X65696895Y-136797037D01*
X65701888Y-136804470D01*
X65701902Y-136804537D01*
X65756553Y-137084140D01*
X65754777Y-137092916D01*
X65748765Y-137097485D01*
X65274795Y-137255252D01*
X65265863Y-137254614D01*
X65259999Y-137247846D01*
X65259798Y-137247178D01*
X65212484Y-137070545D01*
X65213548Y-137061855D01*
X65444416Y-136644434D01*
X65451418Y-136638854D01*
X65460317Y-136639860D01*
G37*
%TD.AperFunction*%
%TD*%
%TA.AperFunction,Conductor*%
%TO.N,Net-(U1-EN)*%
G36*
X67960362Y-133239986D02*
G01*
X67961872Y-133240835D01*
X68198734Y-133397984D01*
X68202015Y-133401265D01*
X68359164Y-133638127D01*
X68360883Y-133646915D01*
X68355883Y-133654344D01*
X68354373Y-133655193D01*
X67857953Y-133887422D01*
X67849007Y-133887823D01*
X67844722Y-133885097D01*
X67714902Y-133755276D01*
X67711475Y-133747003D01*
X67712575Y-133742050D01*
X67944806Y-133245625D01*
X67951416Y-133239585D01*
X67960362Y-133239986D01*
G37*
%TD.AperFunction*%
%TD*%
%TA.AperFunction,Conductor*%
%TO.N,Net-(U1-A1)*%
G36*
X53554344Y-128944116D02*
G01*
X53555193Y-128945626D01*
X53627080Y-129099293D01*
X53746791Y-129355193D01*
X53787422Y-129442046D01*
X53787823Y-129450992D01*
X53785097Y-129455277D01*
X53655277Y-129585097D01*
X53647004Y-129588524D01*
X53642047Y-129587422D01*
X53491428Y-129516961D01*
X53145626Y-129355193D01*
X53139585Y-129348583D01*
X53139986Y-129339637D01*
X53140835Y-129338127D01*
X53297985Y-129101263D01*
X53301263Y-129097985D01*
X53538127Y-128940834D01*
X53546915Y-128939116D01*
X53554344Y-128944116D01*
G37*
%TD.AperFunction*%
%TD*%
%TA.AperFunction,Conductor*%
%TO.N,+5VA*%
G36*
X65637571Y-133710884D02*
G01*
X65643683Y-133717430D01*
X65644194Y-133719214D01*
X65701000Y-134000000D01*
X65701015Y-134000075D01*
X65755825Y-134280418D01*
X65754049Y-134289195D01*
X65746587Y-134294146D01*
X65744448Y-134294363D01*
X65134749Y-134299892D01*
X65126445Y-134296540D01*
X65122943Y-134288298D01*
X65122943Y-133908111D01*
X65126370Y-133899838D01*
X65130536Y-133897155D01*
X65628624Y-133710577D01*
X65637571Y-133710884D01*
G37*
%TD.AperFunction*%
%TD*%
%TA.AperFunction,Conductor*%
%TO.N,Net-(U1-EN)*%
G36*
X59754344Y-132594116D02*
G01*
X59755193Y-132595626D01*
X59827080Y-132749293D01*
X59946791Y-133005193D01*
X59987422Y-133092046D01*
X59987823Y-133100992D01*
X59985097Y-133105277D01*
X59855277Y-133235097D01*
X59847004Y-133238524D01*
X59842047Y-133237422D01*
X59691428Y-133166961D01*
X59345626Y-133005193D01*
X59339585Y-132998583D01*
X59339986Y-132989637D01*
X59340835Y-132988127D01*
X59497985Y-132751263D01*
X59501263Y-132747985D01*
X59738127Y-132590834D01*
X59746915Y-132589116D01*
X59754344Y-132594116D01*
G37*
%TD.AperFunction*%
%TD*%
%TA.AperFunction,Conductor*%
%TO.N,/VREF_3V0*%
G36*
X70900070Y-122058191D02*
G01*
X70902796Y-122062476D01*
X71089608Y-122577709D01*
X71089207Y-122586655D01*
X71082597Y-122592696D01*
X71080929Y-122593165D01*
X70802320Y-122649530D01*
X70797680Y-122649530D01*
X70519070Y-122593165D01*
X70511641Y-122588165D01*
X70509922Y-122579377D01*
X70510387Y-122577720D01*
X70697204Y-122062476D01*
X70703245Y-122055866D01*
X70708203Y-122054764D01*
X70891797Y-122054764D01*
X70900070Y-122058191D01*
G37*
%TD.AperFunction*%
%TD*%
%TA.AperFunction,Conductor*%
%TO.N,/BIAS_1V5*%
G36*
X64630839Y-136121478D02*
G01*
X64859636Y-136208096D01*
X64866160Y-136214230D01*
X64867191Y-136219289D01*
X64863247Y-136403131D01*
X64859644Y-136411329D01*
X64855757Y-136413797D01*
X64630875Y-136500456D01*
X64621923Y-136500234D01*
X64617883Y-136497267D01*
X64460800Y-136318707D01*
X64457909Y-136310232D01*
X64460800Y-136303251D01*
X64617918Y-136124691D01*
X64625955Y-136120745D01*
X64630839Y-136121478D01*
G37*
%TD.AperFunction*%
%TD*%
%TA.AperFunction,Conductor*%
%TO.N,/VOUT_RAW*%
G36*
X69470618Y-131295824D02*
G01*
X69985929Y-131497093D01*
X69992387Y-131503294D01*
X69993371Y-131507990D01*
X69993371Y-131691577D01*
X69989944Y-131699850D01*
X69985383Y-131702672D01*
X69470216Y-131875035D01*
X69461283Y-131874411D01*
X69455409Y-131867652D01*
X69455039Y-131866272D01*
X69398604Y-131587318D01*
X69398604Y-131582680D01*
X69415920Y-131497092D01*
X69454902Y-131304404D01*
X69459902Y-131296976D01*
X69468690Y-131295257D01*
X69470618Y-131295824D01*
G37*
%TD.AperFunction*%
%TD*%
%TA.AperFunction,Conductor*%
%TO.N,/VOUT_RAW*%
G36*
X70837655Y-131310792D02*
G01*
X70843696Y-131317402D01*
X70844165Y-131319070D01*
X70900530Y-131597680D01*
X70900530Y-131602320D01*
X70844165Y-131880929D01*
X70839165Y-131888358D01*
X70830377Y-131890077D01*
X70828709Y-131889608D01*
X70313476Y-131702796D01*
X70306866Y-131696755D01*
X70305764Y-131691797D01*
X70305764Y-131508202D01*
X70309191Y-131499929D01*
X70313473Y-131497204D01*
X70828711Y-131310391D01*
X70837655Y-131310792D01*
G37*
%TD.AperFunction*%
%TD*%
%TA.AperFunction,Conductor*%
%TO.N,Net-(C12-Pad1)*%
G36*
X70400070Y-130409191D02*
G01*
X70402796Y-130413476D01*
X70589608Y-130928709D01*
X70589207Y-130937655D01*
X70582597Y-130943696D01*
X70580929Y-130944165D01*
X70302320Y-131000530D01*
X70297680Y-131000530D01*
X70019070Y-130944165D01*
X70011641Y-130939165D01*
X70009922Y-130930377D01*
X70010387Y-130928720D01*
X70197204Y-130413476D01*
X70203245Y-130406866D01*
X70208203Y-130405764D01*
X70391797Y-130405764D01*
X70400070Y-130409191D01*
G37*
%TD.AperFunction*%
%TD*%
%TA.AperFunction,Conductor*%
%TO.N,/BIAS_1V5*%
G36*
X64630721Y-137010242D02*
G01*
X64877195Y-137097244D01*
X64883855Y-137103229D01*
X64885000Y-137108277D01*
X64885000Y-137291722D01*
X64881573Y-137299995D01*
X64877194Y-137302755D01*
X64630722Y-137389756D01*
X64621780Y-137389278D01*
X64618044Y-137386451D01*
X64544406Y-137302755D01*
X64460798Y-137207727D01*
X64457907Y-137199254D01*
X64460799Y-137192272D01*
X64534700Y-137108277D01*
X64618046Y-137013546D01*
X64626082Y-137009600D01*
X64630721Y-137010242D01*
G37*
%TD.AperFunction*%
%TD*%
%TA.AperFunction,Conductor*%
%TO.N,/COIL_FILT_P*%
G36*
X63911148Y-137779007D02*
G01*
X63914575Y-137787280D01*
X63914568Y-137787696D01*
X63894723Y-138344830D01*
X63891003Y-138352976D01*
X63882614Y-138356107D01*
X63880785Y-138355897D01*
X63604790Y-138301936D01*
X63597328Y-138296985D01*
X63597295Y-138296935D01*
X63438704Y-138058635D01*
X63436973Y-138049849D01*
X63440269Y-138043782D01*
X63711591Y-137778907D01*
X63719764Y-137775580D01*
X63902875Y-137775580D01*
X63911148Y-137779007D01*
G37*
%TD.AperFunction*%
%TD*%
%TA.AperFunction,Conductor*%
%TO.N,/COIL_FILT_P*%
G36*
X60384802Y-137756632D02*
G01*
X60392236Y-137761620D01*
X60394196Y-137768150D01*
X60392631Y-138146372D01*
X60389204Y-138154597D01*
X60259720Y-138284081D01*
X60251447Y-138287508D01*
X60243174Y-138284081D01*
X60242925Y-138283824D01*
X59859996Y-137876704D01*
X59856823Y-137868330D01*
X59860502Y-137860166D01*
X59861981Y-137858984D01*
X60095243Y-137702017D01*
X60104019Y-137700242D01*
X60384802Y-137756632D01*
G37*
%TD.AperFunction*%
%TD*%
%TA.AperFunction,Conductor*%
%TO.N,/COIL_FILT_P*%
G36*
X60225846Y-137965080D02*
G01*
X60653638Y-138145075D01*
X60659934Y-138151442D01*
X60659884Y-138160397D01*
X60658844Y-138162335D01*
X60502962Y-138396895D01*
X60495529Y-138401888D01*
X60495462Y-138401902D01*
X60215281Y-138456666D01*
X60206505Y-138454890D01*
X60202171Y-138449519D01*
X60033846Y-138027521D01*
X60033963Y-138018569D01*
X60040378Y-138012321D01*
X60041677Y-138011889D01*
X60218282Y-137964564D01*
X60225846Y-137965080D01*
G37*
%TD.AperFunction*%
%TD*%
M02*
