%TF.GenerationSoftware,KiCad,Pcbnew,9.0.7-9-ga3ce409f20*%
%TF.CreationDate,2026-04-06T13:44:26+08:00*%
%TF.ProjectId,OPAMP,4f50414d-502e-46b6-9963-61645f706362,rev?*%
%TF.SameCoordinates,Original*%
%TF.FileFunction,Paste,Top*%
%TF.FilePolarity,Positive*%
%FSLAX46Y46*%
G04 Gerber Fmt 4.6, Leading zero omitted, Abs format (unit mm)*
G04 Created by KiCad (PCBNEW 9.0.7-9-ga3ce409f20) date 2026-04-06 13:44:26*
%MOMM*%
%LPD*%
G01*
G04 APERTURE LIST*
G04 Aperture macros list*
%AMRoundRect*
0 Rectangle with rounded corners*
0 $1 Rounding radius*
0 $2 $3 $4 $5 $6 $7 $8 $9 X,Y pos of 4 corners*
0 Add a 4 corners polygon primitive as box body*
4,1,4,$2,$3,$4,$5,$6,$7,$8,$9,$2,$3,0*
0 Add four circle primitives for the rounded corners*
1,1,$1+$1,$2,$3*
1,1,$1+$1,$4,$5*
1,1,$1+$1,$6,$7*
1,1,$1+$1,$8,$9*
0 Add four rect primitives between the rounded corners*
20,1,$1+$1,$2,$3,$4,$5,0*
20,1,$1+$1,$4,$5,$6,$7,0*
20,1,$1+$1,$6,$7,$8,$9,0*
20,1,$1+$1,$8,$9,$2,$3,0*%
G04 Aperture macros list end*
%ADD10RoundRect,0.079500X-0.079500X-0.100500X0.079500X-0.100500X0.079500X0.100500X-0.079500X0.100500X0*%
%ADD11R,0.700000X0.400000*%
%ADD12R,0.800000X0.864000*%
%ADD13O,1.950000X0.568000*%
%ADD14RoundRect,0.079500X-0.100500X0.079500X-0.100500X-0.079500X0.100500X-0.079500X0.100500X0.079500X0*%
%ADD15RoundRect,0.079500X0.100500X-0.079500X0.100500X0.079500X-0.100500X0.079500X-0.100500X-0.079500X0*%
%ADD16RoundRect,0.079500X0.079500X0.100500X-0.079500X0.100500X-0.079500X-0.100500X0.079500X-0.100500X0*%
%ADD17R,1.800000X0.700000*%
%ADD18R,2.700000X1.000000*%
%ADD19RoundRect,0.150000X-0.512500X-0.150000X0.512500X-0.150000X0.512500X0.150000X-0.512500X0.150000X0*%
%ADD20R,1.524000X0.762000*%
%ADD21R,1.450000X0.450000*%
%ADD22O,1.620000X0.280000*%
G04 APERTURE END LIST*
D10*
%TO.C,C16*%
X73403500Y-122380000D03*
X74093500Y-122380000D03*
%TD*%
%TO.C,C11*%
X68995000Y-136800000D03*
X69685000Y-136800000D03*
%TD*%
D11*
%TO.C,D1*%
X54991000Y-135580000D03*
X54991000Y-134930000D03*
%TD*%
D12*
%TO.C,FB1*%
X60300000Y-129100000D03*
X61700000Y-129100000D03*
%TD*%
D10*
%TO.C,C5*%
X68997000Y-136017000D03*
X69687000Y-136017000D03*
%TD*%
%TO.C,R6*%
X54961000Y-130683000D03*
X55651000Y-130683000D03*
%TD*%
D13*
%TO.C,U2*%
X61730000Y-134747000D03*
X61730000Y-136017000D03*
X61730000Y-137287000D03*
X61730000Y-138557000D03*
X67140000Y-138557000D03*
X67140000Y-137287000D03*
X67140000Y-136017000D03*
X67140000Y-134747000D03*
%TD*%
D14*
%TO.C,C12*%
X70160000Y-132290000D03*
X70160000Y-132980000D03*
%TD*%
D10*
%TO.C,C10*%
X60255000Y-127900000D03*
X60945000Y-127900000D03*
%TD*%
%TO.C,R10*%
X54591000Y-128989000D03*
X55281000Y-128989000D03*
%TD*%
D14*
%TO.C,C3*%
X58500000Y-138215000D03*
X58500000Y-138905000D03*
%TD*%
D10*
%TO.C,C8*%
X63155000Y-129381000D03*
X63845000Y-129381000D03*
%TD*%
D15*
%TO.C,C13*%
X70852500Y-124569000D03*
X70852500Y-123879000D03*
%TD*%
D10*
%TO.C,R8*%
X54997000Y-132461000D03*
X55687000Y-132461000D03*
%TD*%
D14*
%TO.C,C1*%
X58520000Y-136545000D03*
X58520000Y-137235000D03*
%TD*%
D10*
%TO.C,C9*%
X60255000Y-127000000D03*
X60945000Y-127000000D03*
%TD*%
D16*
%TO.C,R4*%
X55245000Y-128100000D03*
X54555000Y-128100000D03*
%TD*%
D15*
%TO.C,R1*%
X56134000Y-135600000D03*
X56134000Y-134910000D03*
%TD*%
D16*
%TO.C,R16*%
X67695000Y-130380000D03*
X67005000Y-130380000D03*
%TD*%
D14*
%TO.C,R2*%
X56134000Y-138212000D03*
X56134000Y-138902000D03*
%TD*%
D10*
%TO.C,R20*%
X71573500Y-122380000D03*
X72263500Y-122380000D03*
%TD*%
D17*
%TO.C,J2*%
X51090000Y-123655000D03*
X51090000Y-124905000D03*
X51090000Y-126155000D03*
X51090000Y-127405000D03*
X51090000Y-128655000D03*
X51090000Y-129905000D03*
D18*
X47590000Y-131735000D03*
X47590000Y-121825000D03*
%TD*%
D10*
%TO.C,C4*%
X62012000Y-133477000D03*
X62702000Y-133477000D03*
%TD*%
%TO.C,R5*%
X54591000Y-126200000D03*
X55281000Y-126200000D03*
%TD*%
D14*
%TO.C,C18*%
X65852500Y-122579000D03*
X65852500Y-123269000D03*
%TD*%
D10*
%TO.C,C7*%
X63155000Y-128600000D03*
X63845000Y-128600000D03*
%TD*%
D17*
%TO.C,J3*%
X73910000Y-136240000D03*
X73910000Y-134990000D03*
X73910000Y-133740000D03*
D18*
X77410000Y-131910000D03*
X77410000Y-138070000D03*
%TD*%
D19*
%TO.C,U4*%
X67225000Y-122700000D03*
X67225000Y-123650000D03*
X67225000Y-124600000D03*
X69500000Y-124600000D03*
X69500000Y-122700000D03*
%TD*%
D11*
%TO.C,D2*%
X54991000Y-138232000D03*
X54991000Y-138882000D03*
%TD*%
D14*
%TO.C,R19*%
X71010000Y-132275000D03*
X71010000Y-132965000D03*
%TD*%
D17*
%TO.C,J1*%
X51090000Y-136215000D03*
X51090000Y-137465000D03*
D18*
X47590000Y-139295000D03*
X47590000Y-134385000D03*
%TD*%
D15*
%TO.C,C14*%
X71920000Y-132945000D03*
X71920000Y-132255000D03*
%TD*%
D10*
%TO.C,R7*%
X54961000Y-131572000D03*
X55651000Y-131572000D03*
%TD*%
D15*
%TO.C,C2*%
X58480000Y-135550000D03*
X58480000Y-134860000D03*
%TD*%
D16*
%TO.C,R13*%
X69687000Y-134366000D03*
X68997000Y-134366000D03*
%TD*%
D14*
%TO.C,R18*%
X69320000Y-132290000D03*
X69320000Y-132980000D03*
%TD*%
D10*
%TO.C,R9*%
X54961000Y-133350000D03*
X55651000Y-133350000D03*
%TD*%
D16*
%TO.C,R17*%
X74813500Y-124024000D03*
X74123500Y-124024000D03*
%TD*%
D20*
%TO.C,SW1*%
X62510000Y-124535000D03*
X62510000Y-123265000D03*
X54890000Y-123265000D03*
X54890000Y-124535000D03*
%TD*%
D10*
%TO.C,C15*%
X73407500Y-123224000D03*
X74097500Y-123224000D03*
%TD*%
%TO.C,C6*%
X68997000Y-135255000D03*
X69687000Y-135255000D03*
%TD*%
%TO.C,R15*%
X71535000Y-130370000D03*
X72225000Y-130370000D03*
%TD*%
D16*
%TO.C,R3*%
X55281000Y-127089000D03*
X54591000Y-127089000D03*
%TD*%
%TO.C,C17*%
X69797500Y-121524000D03*
X69107500Y-121524000D03*
%TD*%
D21*
%TO.C,U3*%
X71830000Y-129085000D03*
X71830000Y-128435000D03*
X71830000Y-127785000D03*
X71830000Y-127135000D03*
X67430000Y-127135000D03*
X67430000Y-127785000D03*
X67430000Y-128435000D03*
X67430000Y-129085000D03*
%TD*%
D16*
%TO.C,R14*%
X69695000Y-137610000D03*
X69005000Y-137610000D03*
%TD*%
D22*
%TO.C,U1*%
X57629000Y-130842000D03*
X57629000Y-131342000D03*
X57629000Y-131842000D03*
X57629000Y-132342000D03*
X57629000Y-132842000D03*
X61849000Y-132842000D03*
X61849000Y-132342000D03*
X61849000Y-131842000D03*
X61849000Y-131342000D03*
X61849000Y-130842000D03*
%TD*%
M02*
