M48
; DRILL file {KiCad 9.0.7-9-ga3ce409f20} date 2026-04-06T13:44:38+0800
; FORMAT={-:-/ absolute / metric / decimal}
; #@! TF.CreationDate,2026-04-06T13:44:38+08:00
; #@! TF.GenerationSoftware,Kicad,Pcbnew,9.0.7-9-ga3ce409f20
; #@! TF.FileFunction,Plated,1,2,PTH
FMAT,2
METRIC
; #@! TA.AperFunction,Plated,PTH,ViaDrill
T1C0.300
%
G90
G05
T1
X46.7Y-133.2
X47.9Y-124.3
X49.4Y-136.7
X52.9Y-133.5
X52.9Y-137.9
X53.3Y-129.1
X53.7Y-125.4
X54.6Y-125.416
X55.9Y-126.5
X55.924Y-131.792
X56.1Y-136.8
X56.394Y-130.673
X57.3Y-128.2
X57.8Y-122.6
X59.0Y-131.6
X59.146Y-137.204
X59.5Y-132.75
X59.519Y-130.956
X60.1Y-137.7
X60.412Y-132.014
X60.5Y-138.4
X60.6Y-134.1
X61.707Y-135.233
X63.3Y-133.4
X63.6Y-138.3
X63.7Y-134.1
X63.815Y-135.625
X64.8Y-126.0
X64.9Y-132.2
X65.7Y-134.0
X65.7Y-136.8
X67.2Y-140.9
X68.0Y-132.3
X68.2Y-133.4
X69.1Y-125.9
X69.399Y-131.585
X70.1Y-133.7
X70.3Y-131.0
X70.6Y-121.4
X70.6Y-128.5
X70.775Y-134.175
X70.8Y-122.649
X70.9Y-131.6
X71.446Y-131.086
X72.5Y-137.2
X72.7Y-131.4
X74.5Y-132.0
X75.0Y-127.8
X78.2Y-135.2
M30
